<svg version="1.1" id="Layer_1" xmlns="http://www.w3.org/2000/svg" xmlns:xlink="http://www.w3.org/1999/xlink" x="0px" y="0px"
	 width="100%" viewBox="0 0 938 338" enable-background="new 0 0 938 338" xml:space="preserve">
<path fill="#FEFEFE" opacity="1.000000" stroke="none" 
	d="
M625.000000,339.000000 
	C416.666656,339.000000 208.833328,339.000000 1.000000,339.000000 
	C1.000000,226.333328 1.000000,113.666664 1.000000,1.000000 
	C313.666656,1.000000 626.333313,1.000000 939.000000,1.000000 
	C939.000000,113.666664 939.000000,226.333328 939.000000,339.000000 
	C834.500000,339.000000 730.000000,339.000000 625.000000,339.000000 
M273.198944,160.163651 
	C273.198944,160.163651 273.218262,160.282089 273.773224,160.117523 
	C273.983398,159.803802 274.193573,159.490082 274.874939,158.958969 
	C275.305725,158.428848 275.736542,157.898712 276.706848,157.149490 
	C276.879486,156.814117 277.052124,156.478745 277.119843,156.118576 
	C277.119843,156.118576 277.165039,156.216446 277.683929,156.046738 
	C277.845917,155.733002 278.007904,155.419281 278.073547,155.069824 
	C278.073547,155.069824 278.111084,155.165497 278.638153,155.008026 
	C278.793518,154.690125 278.948914,154.372208 279.021210,154.026459 
	C279.021210,154.026459 279.061707,154.104156 279.577576,153.939697 
	C279.735046,153.628983 279.892487,153.318268 280.498322,152.802338 
	C280.734589,152.378952 280.970825,151.955551 281.883423,151.273773 
	C291.299377,139.425629 297.586395,126.151474 300.644379,110.915047 
	C289.230164,106.773308 277.838623,104.761230 266.105652,105.132721 
	C249.227646,105.667107 233.225906,109.442703 218.990646,119.003197 
	C218.990646,119.003197 218.977890,118.944176 218.314545,118.987839 
	C217.100800,119.862068 215.887039,120.736305 214.999390,122.000000 
	C214.890274,121.870491 214.781174,121.740974 214.027573,121.743103 
	C212.677979,122.824791 211.328384,123.906479 209.999069,125.001808 
	C209.999069,125.001808 209.990326,124.979919 209.303741,125.100754 
	C200.432236,130.448654 194.075516,138.137253 189.003265,146.993637 
	C189.003265,146.993637 188.964554,146.947815 188.393829,147.227905 
	C187.913559,148.146286 187.433289,149.064667 187.003830,149.993698 
	C187.003830,149.993698 186.969208,149.954910 186.411087,150.252380 
	C185.960007,151.178162 185.508926,152.103943 184.819809,153.238266 
	C184.819809,153.238266 184.796844,153.553909 184.283325,153.864914 
	C184.176468,154.239197 184.069626,154.613480 184.004654,154.994064 
	C184.004654,154.994064 183.975647,154.962936 183.399826,155.327362 
	C181.815857,158.539246 180.231888,161.751129 178.386383,165.493332 
	C182.493637,166.691116 185.779892,167.801697 189.149857,168.519135 
	C189.936325,168.686569 191.006958,167.519135 192.007263,166.980759 
	C192.007263,166.980759 191.957321,166.942612 192.482803,166.557571 
	C192.976135,165.363785 193.469467,164.170013 194.004761,162.990021 
	C194.004761,162.990021 193.970001,162.960114 194.507050,162.568558 
	C195.675903,160.380554 196.844757,158.192535 197.998474,156.000702 
	C197.998474,156.000702 198.006897,156.015259 198.562820,155.726685 
	C199.057983,154.826828 199.553162,153.926971 199.997726,153.003799 
	C199.997726,153.003799 200.032211,153.047714 200.616608,152.771774 
	C201.431381,151.527069 202.246155,150.282364 202.999664,149.004684 
	C202.999664,149.004684 203.042343,149.059723 203.581665,148.853989 
	C203.871628,148.370911 204.161591,147.887848 203.983215,147.217529 
	C204.141388,147.272995 204.299561,147.328445 204.916580,147.182281 
	C205.058701,146.889236 205.200821,146.596191 205.136200,146.140656 
	C205.136200,146.140656 205.298889,146.347244 205.918030,146.106384 
	C208.053284,143.823746 210.188522,141.541122 212.154175,139.155441 
	C212.154175,139.155441 212.274506,139.313248 212.779968,139.198502 
	C212.975891,138.927567 213.171814,138.656631 212.972916,138.271927 
	C212.972916,138.271927 213.359589,138.412903 213.917282,138.270111 
	C214.284576,137.849823 214.651855,137.429550 215.000198,136.998459 
	C215.000198,136.998459 215.007568,137.018372 215.626129,136.908630 
	C216.536423,136.083160 217.446716,135.257690 217.977432,134.134827 
	C217.977432,134.134827 218.371628,134.411682 219.021835,134.241058 
	C221.012894,132.824936 223.003967,131.408829 225.000000,130.000000 
	C225.000000,130.000000 224.993027,129.993851 225.711746,129.927231 
	C243.774048,119.575516 262.972046,116.293190 284.445496,120.238319 
	C281.710388,125.977692 279.327362,130.978241 277.003265,135.990280 
	C277.003265,135.990280 276.961975,135.946671 276.410675,136.251343 
	C275.926361,137.160095 275.442017,138.068848 275.003845,138.994720 
	C275.003845,138.994720 274.971802,138.956955 274.396820,139.248596 
	C273.588440,140.494492 272.780060,141.740372 272.001892,142.999390 
	C272.001892,142.999390 271.983887,142.971405 271.372009,143.238556 
	C267.471100,147.367447 263.570221,151.496353 259.851746,156.014618 
	C259.851746,156.014618 259.684235,155.622284 259.125488,155.760712 
	C258.752380,156.176285 258.379242,156.591858 258.000000,157.000000 
	C258.000000,157.000000 258.007111,157.006760 257.369049,157.103668 
	C256.232452,158.059875 255.095871,159.016083 253.995239,160.003662 
	C253.995239,160.003662 253.977234,159.959961 253.350220,160.030319 
	C252.559448,160.682770 251.768677,161.335220 250.999405,162.002335 
	C250.999405,162.002335 250.994171,161.977219 250.425735,162.006760 
	C250.000595,162.367722 249.575455,162.728683 249.080688,163.040833 
	C249.080688,163.040833 249.065765,163.124542 248.436462,163.142746 
	C247.608688,163.750977 246.780914,164.359192 245.989975,165.004898 
	C245.989975,165.004898 245.982956,164.952866 245.299805,164.959473 
	C244.364227,165.560196 243.428650,166.160919 242.206131,166.758347 
	C242.206131,166.758347 242.018906,166.975815 241.242874,167.019623 
	C240.850098,167.803864 239.980621,168.708725 240.143478,169.352402 
	C241.060974,172.978897 242.226654,176.542618 243.476685,180.688187 
	C245.910858,179.333145 247.976074,178.183487 249.997849,177.002655 
	C249.997849,177.002655 250.031097,177.045334 250.783310,177.000793 
	C255.986893,173.486038 261.190491,169.971298 265.996185,166.353058 
	C265.996185,166.353058 266.398438,166.430862 266.877930,166.290680 
	C267.178650,166.151321 267.479340,166.011963 268.329102,165.761612 
	C268.529938,165.461792 268.730804,165.161972 269.006989,164.513000 
	C269.006989,164.513000 269.056122,164.159210 269.593079,164.018707 
	C269.789978,163.720459 269.986847,163.422211 270.086304,163.084793 
	C270.086304,163.084793 270.120514,163.184097 270.658936,163.070847 
	C270.852875,162.775665 271.046783,162.480484 271.124451,162.153763 
	C271.124451,162.153763 271.185333,162.257721 271.685913,162.212692 
	C271.846619,162.165054 272.007324,162.117416 272.584717,161.913864 
	C272.846802,161.740768 273.010132,161.500519 273.246857,160.724670 
	C273.246857,160.724670 273.299988,160.228409 273.198944,160.163651 
M216.123199,159.387573 
	C216.255676,159.706329 216.486710,159.916992 217.055740,160.361786 
	C217.055740,160.361786 217.127258,160.773270 217.145966,161.297821 
	C217.387695,161.536423 217.629425,161.775024 218.263504,162.471283 
	C218.574814,163.200912 218.886139,163.930542 219.176559,165.213257 
	C219.416855,165.477921 219.657166,165.742569 220.127213,166.312576 
	C220.127213,166.312576 220.184082,166.690445 220.161545,167.228210 
	C220.391144,167.490341 220.620743,167.752457 221.065750,168.390167 
	C221.065750,168.390167 221.108887,168.820984 221.026947,169.462662 
	C221.358459,169.972809 221.689957,170.482971 222.239929,171.240723 
	C222.239929,171.240723 222.273666,171.569199 222.199112,172.132736 
	C222.419983,172.425705 222.640869,172.718674 223.055466,173.423828 
	C223.055466,173.423828 223.072006,173.878952 222.970612,174.582382 
	C223.346542,175.373016 223.722488,176.163635 224.004120,176.979156 
	C224.004120,176.979156 224.081512,176.919754 223.975723,177.693344 
	C224.601151,179.463196 225.226578,181.233032 226.067642,183.619461 
	C226.148148,184.264816 226.228653,184.910172 226.105759,186.212387 
	C226.349762,186.810028 226.593765,187.407654 227.008484,188.656418 
	C227.011124,189.103516 227.013748,189.550613 226.455063,190.533173 
	C226.998032,195.990158 227.541016,201.447144 228.660446,206.989044 
	C229.047546,206.958893 229.434631,206.928757 230.334930,206.878220 
	C230.562439,206.636078 230.789963,206.393936 231.431519,205.743622 
	C231.943604,205.488403 232.455688,205.233185 233.614487,204.981354 
	C234.029251,204.556183 234.444031,204.130997 235.266815,203.174896 
	C239.818909,200.439957 241.641190,196.845169 240.844437,191.208603 
	C238.449142,174.263367 232.861038,158.686127 222.737732,144.824753 
	C221.512848,143.147568 220.088791,141.615799 218.783752,140.048721 
	C209.011368,147.243317 209.011826,147.243027 214.816193,156.595840 
	C214.900726,156.732040 214.915115,156.911789 214.968292,157.674072 
	C215.345856,158.096100 215.723419,158.518127 216.006775,158.982559 
	C216.006775,158.982559 216.077972,158.907669 216.123199,159.387573 
M219.942627,175.629288 
	C219.853058,175.302872 219.647522,175.086807 218.730774,174.308929 
	C217.753250,174.218781 216.758438,173.962936 215.800766,174.062943 
	C195.915192,176.139313 177.569962,171.806000 160.764603,160.957550 
	C160.120316,160.541641 159.358582,160.307663 158.579468,159.956390 
	C156.264145,171.559082 158.044159,175.265182 167.820953,179.704300 
	C168.878387,180.184433 169.932037,180.672882 171.321976,181.595703 
	C171.672104,181.654587 172.022232,181.713470 172.722748,181.800247 
	C172.722748,181.800247 173.003281,182.012039 173.388275,182.539902 
	C174.010056,182.639984 174.631851,182.740082 175.649765,182.855316 
	C175.649765,182.855316 175.996063,183.048233 176.372803,183.689148 
	C178.296738,184.096588 180.220657,184.504044 182.588333,184.899155 
	C182.588333,184.899155 182.999512,185.066467 183.451889,185.611221 
	C186.305969,186.052658 189.160034,186.494080 192.682007,186.883804 
	C193.121475,186.956146 193.560959,187.028503 194.544830,187.628372 
	C202.405273,189.526688 210.241226,190.207138 218.710648,187.003174 
	C219.837082,186.665070 220.963531,186.326965 222.591583,185.619949 
	C222.355011,184.752228 222.118439,183.884491 221.688324,182.752930 
	C221.688324,182.752930 221.713104,182.426651 221.891800,181.759216 
	C221.617157,181.172012 221.342529,180.584793 220.893204,179.606033 
	C220.893204,179.606033 220.892120,179.177292 221.009354,178.464981 
	C220.638504,177.658936 220.267654,176.852890 219.989288,176.029114 
	C219.989288,176.029114 219.919830,176.092682 219.942627,175.629288 
M587.995422,274.059570 
	C588.019348,258.050903 588.043335,242.042267 588.986084,225.892517 
	C594.592346,225.892517 600.198547,225.892517 605.855591,225.892517 
	C605.855591,223.346481 605.855591,221.441132 605.855591,219.435394 
	C591.174255,219.435394 576.796875,219.435394 562.360352,219.435394 
	C562.360352,221.642227 562.360352,223.537079 562.360352,225.938034 
	C568.406738,225.938034 574.145935,225.938034 580.320496,225.938034 
	C580.320496,242.664032 580.320496,258.885590 580.320496,275.920685 
	C583.137573,275.554657 585.431763,275.256531 587.995422,274.059570 
M639.190430,260.797180 
	C640.480835,264.034210 641.786804,267.265137 643.058167,270.509644 
	C645.249634,276.102478 646.162964,276.548431 652.577209,274.836914 
	C645.682556,257.537598 638.764709,240.287201 631.960815,222.991943 
	C630.948792,220.419434 629.842590,219.019821 626.666931,219.011627 
	C623.362549,219.003098 622.080261,220.343399 620.983215,223.154831 
	C614.641724,239.406937 608.129089,255.592224 601.699097,271.809937 
	C601.252808,272.935486 601.007263,274.140564 600.673401,275.291107 
	C606.114136,276.734375 608.933716,274.876892 610.244568,269.850037 
	C611.117004,266.504456 612.773376,263.363312 615.002747,260.127350 
	C622.976196,260.126862 630.949646,260.126373 639.190430,260.797180 
M379.011780,220.942673 
	C379.001068,228.623230 378.990356,236.303787 378.065247,244.196289 
	C368.471222,244.196289 358.877197,244.196289 348.733276,244.196289 
	C348.733276,235.658905 348.733276,227.600464 348.733276,219.403458 
	C345.929688,219.403458 343.686707,219.403458 340.973999,219.403458 
	C340.973999,228.930695 340.973999,238.206635 340.973999,247.482590 
	C340.973999,256.745911 340.973999,266.009247 340.973999,275.266510 
	C343.909027,275.266510 346.257843,275.266510 348.932434,275.266510 
	C348.932434,266.715149 348.932434,258.613647 348.932434,250.035904 
	C357.699677,250.035904 366.140198,249.987244 374.579163,250.080719 
	C376.099884,250.097565 377.614136,250.699326 378.997437,251.955582 
	C378.997437,259.807892 378.997437,267.660217 378.997437,276.899353 
	C382.124847,275.748901 384.319885,274.941467 386.743774,273.333313 
	C386.743774,255.398087 386.743774,237.462860 386.743774,218.746506 
	C383.788971,219.252136 381.511353,219.641876 379.011780,220.942673 
M194.257339,133.721878 
	C194.467789,133.409927 194.678223,133.097977 195.192001,132.208374 
	C197.426331,130.119537 199.660660,128.030716 202.491592,125.639099 
	C201.992523,124.760559 201.493454,123.882027 200.422104,122.823975 
	C199.957489,122.446686 199.492889,122.069397 198.836609,121.300247 
	C198.627716,121.065300 198.366348,120.957344 197.393036,120.781158 
	C170.659592,104.018906 142.425751,100.873276 112.225502,110.901886 
	C116.045715,128.740128 123.760498,143.751953 136.222260,157.203354 
	C137.123505,152.991379 137.582977,149.565536 138.624313,146.326752 
	C139.727570,142.895447 139.265900,140.282593 137.199768,137.164673 
	C133.784668,132.011078 131.212540,126.298874 127.996132,120.281273 
	C138.884796,117.909492 148.615997,118.052818 158.370697,119.480225 
	C171.294830,121.371414 182.782684,126.848122 194.257339,133.721878 
M236.329239,227.845963 
	C233.674866,228.801559 231.087936,230.195114 228.351303,230.616531 
	C223.478912,231.366837 221.341003,234.355255 219.190063,238.475067 
	C215.734604,245.093445 211.285843,251.193222 206.919205,258.041656 
	C188.991501,237.643692 182.816116,215.091782 185.358887,189.870209 
	C181.041443,188.712997 177.263611,187.700424 173.478912,186.686005 
	C166.681412,215.071960 179.575729,254.777512 206.837997,275.422821 
	C209.816559,272.513000 213.059616,269.686676 215.904114,266.504089 
	C225.891663,255.329559 233.696091,242.910812 237.057190,227.918304 
	C237.057190,227.918304 237.087494,227.869980 237.087494,227.869980 
	C237.087494,227.869980 237.082138,228.122055 236.329239,227.845963 
M717.778564,168.789322 
	C720.118835,173.935272 722.385376,179.117004 724.852478,184.201462 
	C725.451904,185.436813 726.652100,187.198166 727.676941,187.269623 
	C732.393433,187.598328 737.145691,187.414459 742.983582,187.414459 
	C737.341553,175.477844 732.203491,164.607422 727.079163,153.766159 
	C735.763489,149.180542 739.254822,145.468475 741.001343,139.177658 
	C745.558167,122.764496 735.310852,108.712540 718.215393,108.251320 
	C708.567322,107.991020 698.901550,108.378860 689.254150,108.106300 
	C684.981323,107.985596 683.918213,109.573898 683.948547,113.612083 
	C684.110718,135.251297 683.980896,156.892502 684.042419,178.532745 
	C684.070435,188.405609 682.514587,187.560379 693.075195,187.593048 
	C700.030029,187.614563 700.030640,187.591461 700.031250,180.471054 
	C700.031921,172.047531 700.031433,163.624008 700.031433,155.305878 
	C711.071594,154.039658 711.072510,154.039261 715.188782,163.109268 
	C715.944519,164.774384 716.689941,166.444138 717.778564,168.789322 
M589.032837,153.282013 
	C587.380371,146.842514 585.491089,140.451218 584.166565,133.944962 
	C583.401184,130.185257 581.576416,128.906189 577.990662,129.322418 
	C576.511230,129.494141 574.968811,129.529999 573.500977,129.314560 
	C569.575500,128.738480 567.915161,130.506836 567.066528,134.248947 
	C564.809814,144.200089 562.212219,154.073914 559.448059,165.194031 
	C558.673096,163.125076 558.246887,162.277390 558.035889,161.379135 
	C555.869385,152.154495 553.815491,142.902267 551.520569,133.710052 
	C551.134766,132.164490 549.860229,129.755966 548.805664,129.650406 
	C544.284607,129.197891 539.692322,129.457443 534.464661,129.457443 
	C535.075867,131.950394 535.402283,133.528809 535.850647,135.071808 
	C539.884277,148.954498 543.947998,162.828491 547.985596,176.710052 
	C551.236572,187.887070 551.224731,187.786346 562.957275,187.656296 
	C566.190735,187.620468 567.610840,186.622803 568.352173,183.346527 
	C570.396729,174.311340 572.877808,165.374954 575.279602,156.036682 
	C575.782043,156.845352 576.145264,157.225800 576.278198,157.674484 
	C578.166260,164.047455 579.975952,170.443909 581.897400,176.806671 
	C585.798340,189.724014 582.356323,187.224289 596.369995,187.642868 
	C599.763306,187.744202 601.322754,186.619781 602.295715,183.219101 
	C607.003296,166.765182 612.030212,150.402725 616.907104,133.996918 
	C617.261841,132.803543 617.324341,131.523285 617.664368,129.397919 
	C613.703430,129.397919 610.239746,129.590393 606.807556,129.344620 
	C603.265137,129.090988 601.484436,130.065781 600.617493,133.913498 
	C598.299988,144.199295 595.423645,154.359192 592.426025,165.890167 
	C591.105103,161.083359 590.144226,157.586945 589.032837,153.282013 
M516.955200,130.304672 
	C508.616791,127.194641 500.816376,127.860641 493.398651,134.641510 
	C493.398651,128.635223 493.398590,123.654869 493.398712,118.674507 
	C493.398956,108.212280 493.396179,108.392036 482.729004,108.226730 
	C478.571655,108.162323 477.308044,109.462814 477.343933,113.617233 
	C477.525177,134.603592 477.427582,155.592377 477.425049,176.580322 
	C477.423706,187.771973 477.422821,187.589584 488.487701,187.688431 
	C492.553772,187.724747 493.566254,186.299240 493.476807,182.483398 
	C493.250397,172.827606 493.400238,163.162949 493.403595,153.501831 
	C493.405029,149.299805 494.344635,145.484634 498.354401,143.291382 
	C504.887207,139.718079 511.761719,144.255676 511.879089,152.406296 
	C512.044250,163.874664 511.920868,175.347168 511.920868,187.591461 
	C516.301880,187.591461 520.252136,187.519379 524.198242,187.616043 
	C526.962952,187.683746 528.001160,186.564148 527.973816,183.751556 
	C527.857300,171.759628 528.099609,159.761658 527.825867,147.774704 
	C527.656067,140.338943 524.588989,134.248932 516.955200,130.304672 
M329.753235,108.324463 
	C327.870575,108.509384 325.987946,108.694305 323.841095,108.905167 
	C324.189667,110.357475 324.339050,111.155212 324.572632,111.927513 
	C331.115814,133.563858 337.659424,155.200089 344.221252,176.830795 
	C347.546051,187.790939 347.561920,187.675888 359.378082,187.659119 
	C362.752197,187.654343 364.365753,186.646149 365.346069,183.250092 
	C368.848328,171.117325 372.721436,159.091660 376.450348,147.024261 
	C380.311432,134.529160 384.167938,122.032639 388.401031,108.323685 
	C384.218658,108.323685 380.795227,108.620323 377.445068,108.251419 
	C372.868835,107.747528 371.094482,109.717545 370.010498,114.010361 
	C365.787170,130.735764 361.198608,147.368958 356.413086,165.282318 
	C355.601990,162.944626 355.124084,161.784119 354.794037,160.582977 
	C350.874878,146.318649 347.043030,132.029968 343.054047,117.785271 
	C339.949493,106.698769 342.525482,108.516388 329.753235,108.324463 
M620.365295,172.327179 
	C620.766968,178.580627 623.121826,183.754837 629.200256,186.230743 
	C638.429688,189.990128 647.321045,189.332840 655.964294,182.564056 
	C655.227966,187.278976 657.648987,187.841690 660.885864,187.607178 
	C663.037231,187.451294 665.219849,187.440811 667.369141,187.610565 
	C670.718506,187.875092 672.092163,186.756226 672.028809,183.129578 
	C671.825562,171.488083 671.958618,159.840851 671.946716,148.195831 
	C671.941223,142.894028 669.831604,138.540100 665.915100,135.020447 
	C656.451355,126.515549 637.014343,126.312195 627.475952,134.719360 
	C624.200928,137.605911 621.568665,140.939896 622.135986,146.147018 
	C625.078857,146.519882 627.877014,146.732956 630.616028,147.256241 
	C634.272217,147.954742 637.146912,148.410339 640.134888,144.596451 
	C642.976135,140.969849 648.014404,141.355072 652.155396,143.406845 
	C656.023926,145.323593 656.332214,148.901627 655.631958,153.124893 
	C650.788147,153.124893 646.144836,152.944244 641.519897,153.159073 
	C628.131775,153.780945 621.637573,159.484131 620.365295,172.327179 
M778.493530,185.122894 
	C779.427124,184.482727 780.360718,183.842545 781.366394,183.152939 
	C782.950134,188.000641 788.942261,189.227524 797.834961,186.658493 
	C797.834961,172.802017 797.948181,158.853485 797.715515,144.910736 
	C797.679688,142.764511 796.366150,140.436752 795.111145,138.546371 
	C786.402161,125.428146 759.853943,124.999580 750.760986,137.895996 
	C749.326416,139.930511 749.002258,142.747925 748.164673,145.203369 
	C750.317322,145.815292 752.460999,146.462158 754.627380,147.020905 
	C755.424805,147.226562 756.294128,147.144882 757.099304,147.330383 
	C760.638184,148.145645 763.343262,148.067047 766.199341,144.666412 
	C769.190796,141.104477 774.116882,141.418503 778.257507,143.428375 
	C782.166504,145.325806 782.412598,148.895370 781.673340,153.071426 
	C777.689453,153.071426 774.035706,152.863220 770.416687,153.128647 
	C766.629089,153.406464 762.751099,153.711426 759.130493,154.758057 
	C750.237732,157.328720 745.843689,164.128479 746.645386,173.249176 
	C747.402527,181.862198 752.568176,187.452133 761.948853,187.948135 
	C767.202087,188.225891 772.565918,186.412018 778.493530,185.122894 
M425.245514,182.267395 
	C436.391571,190.109833 448.336731,190.116547 460.328674,185.035156 
	C468.196442,181.701309 471.223511,174.001358 469.048676,165.950974 
	C467.633484,160.712158 463.636383,157.933517 459.081268,156.206833 
	C453.041840,153.917480 446.667877,152.514877 440.610931,150.264847 
	C438.800751,149.592407 437.570587,147.358551 436.074677,145.840073 
	C437.706238,144.398987 439.109711,142.289993 441.011597,141.640427 
	C447.027802,139.585617 451.774994,142.012390 454.503571,147.802124 
	C459.160400,147.802124 463.731628,147.802124 468.627655,147.802124 
	C468.534363,140.157623 465.211487,135.044373 458.915070,131.824493 
	C451.600281,128.083817 443.817932,127.880394 436.032288,129.664688 
	C426.889740,131.759918 421.542389,137.365112 420.923187,144.772430 
	C420.190918,153.532227 423.270996,158.001648 433.496216,162.043518 
	C438.580536,164.053268 444.008850,165.197937 449.075806,167.243546 
	C450.852142,167.960678 452.013367,170.201370 453.455475,171.746338 
	C451.792511,173.163651 450.339386,175.325058 448.428711,175.863754 
	C441.738159,177.750183 437.692749,175.588211 434.379242,168.973343 
	C432.307495,168.973343 430.132843,168.823624 427.987915,169.012268 
	C425.459412,169.234634 422.956665,169.749985 420.442749,170.138321 
	C421.219666,173.256973 421.905426,176.403076 422.831238,179.476898 
	C423.095459,180.354172 424.056274,181.021637 425.245514,182.267395 
M229.651169,86.583427 
	C229.494568,85.428543 229.370468,84.268166 229.176285,83.119637 
	C227.394424,72.579994 218.742920,64.561676 208.483917,63.926907 
	C197.213608,63.229565 187.444275,69.730469 184.253754,80.050644 
	C181.099503,90.253510 185.355835,101.446777 194.553375,106.872963 
	C209.766922,115.848366 229.066605,105.499466 229.651169,86.583427 
M802.563232,210.702179 
	C805.046143,210.473923 807.548279,210.371017 810.008606,209.995178 
	C819.430420,208.555954 823.747314,204.377792 825.341370,194.995193 
	C825.811584,192.227341 825.953491,189.376312 825.964050,186.562332 
	C826.022461,171.091171 826.103210,155.618668 825.959351,140.148636 
	C825.845398,127.886208 828.352844,129.521790 814.697998,129.246796 
	C810.929993,129.170914 809.876587,130.584457 809.908203,134.222382 
	C810.059998,151.688736 809.999695,169.157211 809.961975,186.624802 
	C809.945251,194.370422 808.081909,196.562469 800.527405,197.013947 
	C797.446594,197.198074 796.350708,198.364609 796.515930,201.247696 
	C796.601501,202.739822 796.656555,204.255417 796.496643,205.735718 
	C796.067261,209.709595 797.806152,211.298233 802.563232,210.702179 
M241.217682,203.754135 
	C226.294693,216.443527 209.148346,219.429718 189.991943,214.573608 
	C190.705795,217.701828 191.426559,219.935852 191.695343,222.222961 
	C192.331467,227.635696 195.446716,229.415192 200.648071,229.876648 
	C230.717163,232.544296 259.816193,213.544403 269.000702,184.711456 
	C270.661285,179.498428 271.405029,173.993347 272.572052,168.623108 
	C272.067230,168.402481 271.562408,168.181854 271.057587,167.961227 
	C268.874207,169.608673 266.860840,171.578400 264.472839,172.837860 
	C259.164062,175.637665 256.337128,179.908630 253.822723,185.378616 
	C250.856689,191.831223 245.866028,197.353165 241.217682,203.754135 
M155.672653,178.520248 
	C150.620697,158.957199 155.172379,141.721664 168.936966,126.332222 
	C165.867111,125.498512 163.327225,124.920082 160.861328,124.114990 
	C156.260361,122.612846 153.474075,123.979584 150.782349,128.265915 
	C134.340195,154.448593 137.827621,188.507523 159.639114,210.445007 
	C162.154190,212.974594 165.041519,215.134064 168.329758,217.957596 
	C167.796799,207.775757 168.403534,198.589218 161.296982,190.961746 
	C158.523453,187.984894 157.645645,183.241806 155.672653,178.520248 
M451.425934,243.114883 
	C449.100769,228.254318 439.793091,219.451157 425.677063,218.761658 
	C411.598328,218.073990 400.589203,225.799652 397.222656,238.729584 
	C393.466278,253.156708 399.093994,267.693481 411.045013,273.280151 
	C420.887817,277.881256 430.873596,277.586334 439.991608,271.463867 
	C449.676056,264.961060 452.333740,255.090759 451.425934,243.114883 
M501.771149,266.392761 
	C501.771149,269.353455 501.771149,272.314117 501.771149,275.374298 
	C504.469910,275.374298 506.692596,275.374298 509.318848,275.374298 
	C509.318848,268.463165 509.318848,261.872986 509.318848,255.044495 
	C514.629578,254.678375 519.612427,254.684021 524.475769,253.924683 
	C533.728577,252.480026 539.210449,245.845581 539.237976,236.724564 
	C539.266541,227.261444 534.282776,221.023346 524.432007,219.954468 
	C517.104248,219.159363 509.620972,219.797897 501.771423,219.797897 
	C501.771423,234.891357 501.771423,250.155457 501.771149,266.392761 
M408.822388,187.485565 
	C409.502960,186.502945 410.769989,185.524429 410.776917,184.537094 
	C410.898163,167.221420 410.906891,149.904343 410.764801,132.588989 
	C410.756104,131.527222 409.350983,129.625458 408.493530,129.565125 
	C404.097321,129.255798 399.667633,129.421967 394.893829,129.421967 
	C394.893829,145.080719 394.894287,159.880463 394.893707,174.680206 
	C394.893219,187.648560 394.892700,187.648560 408.822388,187.485565 
M492.122375,259.430634 
	C492.648254,252.209183 488.852325,247.875443 482.562744,245.297821 
	C478.118378,243.476410 473.378662,242.227692 469.202057,239.937012 
	C463.492340,236.805527 463.956207,229.241501 469.806396,226.346405 
	C474.508789,224.019302 479.403198,224.377075 483.576782,227.311264 
	C488.033630,230.444595 489.620209,228.621475 490.693726,224.239883 
	C484.358246,218.619781 477.046722,217.490036 469.246521,219.635178 
	C462.504059,221.489395 458.261536,227.304230 458.085724,233.964722 
	C457.912842,240.513718 461.204193,245.256836 468.023254,247.949692 
	C471.722656,249.410599 475.575226,250.485992 479.264191,251.970245 
	C482.728119,253.363953 485.106598,255.721069 484.990417,259.858582 
	C484.870361,264.132416 482.981049,267.905487 478.980713,268.634979 
	C474.830597,269.391815 470.268890,268.684967 466.033844,267.862762 
	C463.768982,267.423035 461.813141,265.391418 459.301941,263.817566 
	C458.034607,265.584778 456.862488,267.219269 455.576263,269.012848 
	C457.386078,270.405823 458.640656,271.499115 460.022217,272.397064 
	C461.267578,273.206512 462.605347,273.917511 463.982361,274.473999 
	C477.506653,279.939331 490.147675,273.547455 492.122375,259.430634 
M666.783875,259.473724 
	C666.783875,246.219467 666.783875,232.965210 666.783875,219.518341 
	C663.906006,219.518341 661.559326,219.518341 659.359863,219.518341 
	C659.359863,238.410538 659.359863,256.919830 659.359863,275.322144 
	C670.105774,275.322144 680.458130,275.322144 690.836426,275.322144 
	C690.836426,273.132416 690.836426,271.352722 690.836426,268.982727 
	C682.780273,268.982727 674.902832,268.982727 666.783936,268.982727 
	C666.783936,265.752747 666.783936,263.109436 666.783875,259.473724 
M524.057068,88.340370 
	C522.577637,84.602722 522.457825,79.100822 515.402222,82.206200 
	C515.402222,89.953369 515.306152,97.898354 515.531433,105.834213 
	C515.557800,106.761086 517.358459,107.637589 518.336609,108.537437 
	C518.767883,108.224609 519.199158,107.911774 519.630432,107.598946 
	C519.630432,101.780502 519.630432,95.962059 519.630432,90.143616 
	C522.290222,94.918411 523.942261,99.878571 525.871521,104.728455 
	C526.383667,106.015862 527.747559,106.964417 528.720398,108.068565 
	C529.836670,106.928932 531.411194,105.982147 531.986511,104.614891 
	C534.021912,99.777184 535.715698,94.795677 537.538940,89.868683 
	C537.892639,89.971466 538.246277,90.074249 538.599976,90.177032 
	C538.599976,95.959541 538.599976,101.742050 538.599976,107.791763 
	C540.118286,107.791763 541.337036,107.791763 542.684082,107.791763 
	C542.684082,99.071037 542.684082,90.502609 542.684082,81.979179 
	C538.329773,80.320473 536.131042,81.700294 534.891724,85.986320 
	C533.424194,91.061417 531.314453,95.950813 529.006226,102.214798 
	C527.054016,96.814468 525.659302,92.956291 524.057068,88.340370 
M548.866699,275.673187 
	C550.802063,275.673187 552.737366,275.673187 554.652954,275.673187 
	C554.652954,256.506256 554.652954,237.954651 554.652954,219.500168 
	C552.045044,219.500168 549.805603,219.500168 547.262390,219.500168 
	C547.262390,237.973923 547.257385,256.095184 547.293945,274.216370 
	C547.294800,274.625214 547.766602,275.033081 548.866699,275.673187 
M266.031586,135.458817 
	C264.093872,132.172775 262.282837,128.800934 260.147858,125.648476 
	C259.426880,124.583893 257.779449,123.305290 256.736847,123.448181 
	C252.611481,124.013573 248.558060,125.103798 245.030334,125.878181 
	C249.803680,134.369324 254.280502,142.333008 259.180634,151.049683 
	C261.094025,148.836960 262.877655,146.401077 265.040222,144.368256 
	C267.723572,141.845856 268.588013,139.308868 266.031586,135.458817 
M818.352905,124.239929 
	C822.754395,123.984566 826.451660,122.044113 827.095825,117.644859 
	C827.520081,114.747406 826.725525,110.988861 825.051819,108.624535 
	C822.447998,104.946228 818.110840,104.247803 813.884094,106.238014 
	C809.722656,108.197449 807.512146,111.654396 808.306091,116.285423 
	C809.169006,121.318298 812.453735,124.001221 818.352905,124.239929 
M401.784393,105.368324 
	C400.247681,105.958702 398.551605,106.304924 397.203888,107.184807 
	C392.990387,109.935646 391.793518,115.170517 394.192657,119.460732 
	C396.638153,123.833839 402.462067,125.519600 407.253601,123.241333 
	C411.720093,121.117592 413.823120,116.073502 411.952728,111.495827 
	C410.262115,107.358170 406.877991,105.548897 401.784393,105.368324 
M629.722290,98.553665 
	C627.541809,96.261261 630.020569,95.645706 631.145691,94.478714 
	C635.180054,90.294167 633.664795,83.349045 628.164795,82.179077 
	C624.265686,81.349648 620.136292,81.602440 616.018799,81.366966 
	C616.018799,90.679665 616.018799,99.111092 616.018799,107.788010 
	C617.386353,107.788010 618.587097,107.788010 620.212524,107.788010 
	C620.212524,104.304413 620.212524,101.066193 620.212524,96.445221 
	C622.638977,97.815506 624.505981,98.368118 625.593628,99.605644 
	C627.097473,101.316673 627.733582,103.802338 629.269775,105.469193 
	C630.540955,106.848503 632.577942,107.522026 634.275635,108.508270 
	C634.555420,108.053825 634.835144,107.599373 635.114929,107.144928 
	C633.436157,104.499863 631.757446,101.854790 629.722290,98.553665 
M559.276367,81.270233 
	C557.983948,81.966911 555.939087,82.361488 555.518860,83.408310 
	C552.322937,91.369141 549.444702,99.457520 546.463562,107.516754 
	C549.681519,108.853714 551.552002,107.934738 552.015564,104.758240 
	C552.550903,101.089706 554.826111,100.560783 558.018555,100.762901 
	C561.117615,100.959114 564.370361,100.203545 565.032288,104.757034 
	C565.509338,108.038864 567.411194,109.116364 570.563049,107.308792 
	C569.250366,103.716118 568.054932,100.100731 566.615173,96.585426 
	C564.514832,91.457214 562.238708,86.400986 559.276367,81.270233 
M574.187988,83.019897 
	C574.187988,91.264961 574.187988,99.510033 574.187988,107.860519 
	C579.495728,107.860519 584.237122,107.860519 589.891296,107.860519 
	C587.664490,101.459404 581.840698,106.049110 579.196411,103.619049 
	C579.196411,101.052048 579.196411,98.660484 579.196411,95.981812 
	C582.487366,95.981812 585.433777,95.981812 588.376282,95.981812 
	C588.351990,92.898376 588.351990,92.898376 579.101318,91.807350 
	C579.101318,89.752686 579.101318,87.661575 579.101318,85.174561 
	C582.497437,85.174561 585.755493,85.174561 590.219238,85.174561 
	C588.991333,83.364372 588.324219,81.528725 587.650818,81.526398 
	C583.238770,81.511124 578.825378,81.892136 574.187988,83.019897 
M594.996460,94.505127 
	C594.996460,98.930321 594.996460,103.355515 594.996460,107.852539 
	C600.298340,107.852539 605.048889,107.852539 611.170349,107.852539 
	C608.173828,101.903221 602.654846,105.837143 599.739441,103.623947 
	C599.739441,101.136597 599.739441,98.736908 599.739441,95.880463 
	C603.116211,95.880463 606.191650,95.880463 609.784180,95.880463 
	C607.971619,89.342422 602.243774,94.247078 599.377441,91.215294 
	C599.486450,89.429619 599.611267,87.384033 599.746948,85.160515 
	C601.828186,85.160515 603.315002,85.160522 604.801880,85.160522 
	C606.427856,85.160522 608.053772,85.160515 609.676697,85.160515 
	C609.679626,81.136299 604.097351,80.072556 594.996460,82.142776 
	C594.996460,85.895004 594.996460,89.704651 594.996460,94.505127 
M659.903992,95.772530 
	C657.272400,94.376381 654.482056,93.202377 652.079529,91.485641 
	C650.963257,90.688019 649.853333,88.666321 650.115356,87.511444 
	C650.356689,86.447426 652.348816,85.396454 653.736633,85.086273 
	C655.085266,84.784843 656.677368,85.725487 658.103699,85.572327 
	C659.318298,85.441895 660.449219,84.531616 661.617126,83.966354 
	C661.443604,83.351082 661.270081,82.735809 661.096619,82.120537 
	C658.200073,81.790596 655.281921,81.070396 652.412537,81.229790 
	C648.850037,81.427711 645.405518,83.305367 645.589539,87.132385 
	C645.718445,89.814201 647.838013,92.582062 649.584290,94.927620 
	C650.456604,96.099419 652.737061,96.127304 653.924377,97.184807 
	C655.370667,98.472900 656.336853,100.299950 657.510742,101.893898 
	C655.584229,102.831764 653.720764,104.326691 651.713745,104.554146 
	C649.617493,104.791718 647.382935,103.809250 645.208801,103.360130 
	C644.918579,103.701729 644.628357,104.043327 644.338074,104.384926 
	C645.304077,105.555710 646.110962,107.527084 647.264038,107.756279 
	C651.829346,108.663681 656.708740,109.503616 660.340088,105.451416 
	C662.869873,102.628479 662.684387,99.383972 659.903992,95.772530 
M636.923645,88.522888 
	C637.286011,89.263367 637.648438,90.003838 638.010803,90.744301 
	C638.750671,90.239250 639.845337,89.896980 640.165466,89.199310 
	C641.220947,86.899307 641.996277,84.470695 642.961487,81.869728 
	C636.436584,80.103180 638.309204,85.392799 636.923645,88.522888 
z"/>
<path fill="#E9680B" opacity="1.000000" stroke="none" 
	d="
M717.609375,168.450531 
	C716.689941,166.444138 715.944519,164.774384 715.188782,163.109268 
	C711.072510,154.039261 711.071594,154.039658 700.031433,155.305878 
	C700.031433,163.624008 700.031921,172.047531 700.031250,180.471054 
	C700.030640,187.591461 700.030029,187.614563 693.075195,187.593048 
	C682.514587,187.560379 684.070435,188.405609 684.042419,178.532745 
	C683.980896,156.892502 684.110718,135.251297 683.948547,113.612083 
	C683.918213,109.573898 684.981323,107.985596 689.254150,108.106300 
	C698.901550,108.378860 708.567322,107.991020 718.215393,108.251320 
	C735.310852,108.712540 745.558167,122.764496 741.001343,139.177658 
	C739.254822,145.468475 735.763489,149.180542 727.079163,153.766159 
	C732.203491,164.607422 737.341553,175.477844 742.983582,187.414459 
	C737.145691,187.414459 732.393433,187.598328 727.676941,187.269623 
	C726.652100,187.198166 725.451904,185.436813 724.852478,184.201462 
	C722.385376,179.117004 720.118835,173.935272 717.609375,168.450531 
M700.012695,127.651604 
	C700.012695,132.420319 700.012695,137.189041 700.012695,142.216415 
	C706.216736,142.216415 711.703796,142.491898 717.149780,142.137695 
	C722.423584,141.794693 725.744202,138.051987 726.011841,133.043518 
	C726.295898,127.726830 723.359741,123.103294 718.145935,122.531090 
	C712.302490,121.889778 706.334412,122.383774 700.251953,122.383774 
	C700.157715,124.084442 700.085388,125.389366 700.012695,127.651604 
z"/>
<path fill="#134790" opacity="1.000000" stroke="none" 
	d="
M589.108154,153.686264 
	C590.144226,157.586945 591.105103,161.083359 592.426025,165.890167 
	C595.423645,154.359192 598.299988,144.199295 600.617493,133.913498 
	C601.484436,130.065781 603.265137,129.090988 606.807556,129.344620 
	C610.239746,129.590393 613.703430,129.397919 617.664368,129.397919 
	C617.324341,131.523285 617.261841,132.803543 616.907104,133.996918 
	C612.030212,150.402725 607.003296,166.765182 602.295715,183.219101 
	C601.322754,186.619781 599.763306,187.744202 596.369995,187.642868 
	C582.356323,187.224289 585.798340,189.724014 581.897400,176.806671 
	C579.975952,170.443909 578.166260,164.047455 576.278198,157.674484 
	C576.145264,157.225800 575.782043,156.845352 575.279602,156.036682 
	C572.877808,165.374954 570.396729,174.311340 568.352173,183.346527 
	C567.610840,186.622803 566.190735,187.620468 562.957275,187.656296 
	C551.224731,187.786346 551.236572,187.887070 547.985596,176.710052 
	C543.947998,162.828491 539.884277,148.954498 535.850647,135.071808 
	C535.402283,133.528809 535.075867,131.950394 534.464661,129.457443 
	C539.692322,129.457443 544.284607,129.197891 548.805664,129.650406 
	C549.860229,129.755966 551.134766,132.164490 551.520569,133.710052 
	C553.815491,142.902267 555.869385,152.154495 558.035889,161.379135 
	C558.246887,162.277390 558.673096,163.125076 559.448059,165.194031 
	C562.212219,154.073914 564.809814,144.200089 567.066528,134.248947 
	C567.915161,130.506836 569.575500,128.738480 573.500977,129.314560 
	C574.968811,129.529999 576.511230,129.494141 577.990662,129.322418 
	C581.576416,128.906189 583.401184,130.185257 584.166565,133.944962 
	C585.491089,140.451218 587.380371,146.842514 589.108154,153.686264 
z"/>
<path fill="#144891" opacity="1.000000" stroke="none" 
	d="
M517.280396,130.501953 
	C524.588989,134.248932 527.656067,140.338943 527.825867,147.774704 
	C528.099609,159.761658 527.857300,171.759628 527.973816,183.751556 
	C528.001160,186.564148 526.962952,187.683746 524.198242,187.616043 
	C520.252136,187.519379 516.301880,187.591461 511.920868,187.591461 
	C511.920868,175.347168 512.044250,163.874664 511.879089,152.406296 
	C511.761719,144.255676 504.887207,139.718079 498.354401,143.291382 
	C494.344635,145.484634 493.405029,149.299805 493.403595,153.501831 
	C493.400238,163.162949 493.250397,172.827606 493.476807,182.483398 
	C493.566254,186.299240 492.553772,187.724747 488.487701,187.688431 
	C477.422821,187.589584 477.423706,187.771973 477.425049,176.580322 
	C477.427582,155.592377 477.525177,134.603592 477.343933,113.617233 
	C477.308044,109.462814 478.571655,108.162323 482.729004,108.226730 
	C493.396179,108.392036 493.398956,108.212280 493.398712,118.674507 
	C493.398590,123.654869 493.398651,128.635223 493.398651,134.641510 
	C500.816376,127.860641 508.616791,127.194641 517.280396,130.501953 
z"/>
<path fill="#124790" opacity="1.000000" stroke="none" 
	d="
M330.208710,108.324150 
	C342.525482,108.516388 339.949493,106.698769 343.054047,117.785271 
	C347.043030,132.029968 350.874878,146.318649 354.794037,160.582977 
	C355.124084,161.784119 355.601990,162.944626 356.413086,165.282318 
	C361.198608,147.368958 365.787170,130.735764 370.010498,114.010361 
	C371.094482,109.717545 372.868835,107.747528 377.445068,108.251419 
	C380.795227,108.620323 384.218658,108.323685 388.401031,108.323685 
	C384.167938,122.032639 380.311432,134.529160 376.450348,147.024261 
	C372.721436,159.091660 368.848328,171.117325 365.346069,183.250092 
	C364.365753,186.646149 362.752197,187.654343 359.378082,187.659119 
	C347.561920,187.675888 347.546051,187.790939 344.221252,176.830795 
	C337.659424,155.200089 331.115814,133.563858 324.572632,111.927513 
	C324.339050,111.155212 324.189667,110.357475 323.841095,108.905167 
	C325.987946,108.694305 327.870575,108.509384 330.208710,108.324150 
z"/>
<path fill="#12468F" opacity="1.000000" stroke="none" 
	d="
M620.359497,171.913605 
	C621.637573,159.484131 628.131775,153.780945 641.519897,153.159073 
	C646.144836,152.944244 650.788147,153.124893 655.631958,153.124893 
	C656.332214,148.901627 656.023926,145.323593 652.155396,143.406845 
	C648.014404,141.355072 642.976135,140.969849 640.134888,144.596451 
	C637.146912,148.410339 634.272217,147.954742 630.616028,147.256241 
	C627.877014,146.732956 625.078857,146.519882 622.135986,146.147018 
	C621.568665,140.939896 624.200928,137.605911 627.475952,134.719360 
	C637.014343,126.312195 656.451355,126.515549 665.915100,135.020447 
	C669.831604,138.540100 671.941223,142.894028 671.946716,148.195831 
	C671.958618,159.840851 671.825562,171.488083 672.028809,183.129578 
	C672.092163,186.756226 670.718506,187.875092 667.369141,187.610565 
	C665.219849,187.440811 663.037231,187.451294 660.885864,187.607178 
	C657.648987,187.841690 655.227966,187.278976 655.964294,182.564056 
	C647.321045,189.332840 638.429688,189.990128 629.200256,186.230743 
	C623.121826,183.754837 620.766968,178.580627 620.359497,171.913605 
M648.346680,176.001831 
	C655.400146,173.054489 656.831970,170.412155 655.268799,162.758545 
	C652.551086,162.758545 649.753784,162.734558 646.957275,162.770035 
	C645.798950,162.784714 644.628418,162.840927 643.487244,163.025681 
	C638.826233,163.780258 635.905823,166.744934 636.343018,170.470139 
	C636.877808,175.026642 640.210571,176.287277 644.141357,176.548264 
	C645.274658,176.623489 646.435425,176.286545 648.346680,176.001831 
z"/>
<path fill="#E9680B" opacity="1.000000" stroke="none" 
	d="
M778.186707,185.331726 
	C772.565918,186.412018 767.202087,188.225891 761.948853,187.948135 
	C752.568176,187.452133 747.402527,181.862198 746.645386,173.249176 
	C745.843689,164.128479 750.237732,157.328720 759.130493,154.758057 
	C762.751099,153.711426 766.629089,153.406464 770.416687,153.128647 
	C774.035706,152.863220 777.689453,153.071426 781.673340,153.071426 
	C782.412598,148.895370 782.166504,145.325806 778.257507,143.428375 
	C774.116882,141.418503 769.190796,141.104477 766.199341,144.666412 
	C763.343262,148.067047 760.638184,148.145645 757.099304,147.330383 
	C756.294128,147.144882 755.424805,147.226562 754.627380,147.020905 
	C752.460999,146.462158 750.317322,145.815292 748.164673,145.203369 
	C749.002258,142.747925 749.326416,139.930511 750.760986,137.895996 
	C759.853943,124.999580 786.402161,125.428146 795.111145,138.546371 
	C796.366150,140.436752 797.679688,142.764511 797.715515,144.910736 
	C797.948181,158.853485 797.834961,172.802017 797.834961,186.658493 
	C788.942261,189.227524 782.950134,188.000641 781.366394,183.152939 
	C780.360718,183.842545 779.427124,184.482727 778.186707,185.331726 
M768.277527,176.275940 
	C778.261536,177.194580 783.228821,172.289993 781.407166,163.084091 
	C777.334045,163.084091 773.035522,162.363449 769.166992,163.342026 
	C766.661926,163.975708 763.820129,166.718765 762.862061,169.188736 
	C761.555298,172.557693 763.987793,175.103851 768.277527,176.275940 
z"/>
<path fill="#ED6502" opacity="1.000000" stroke="none" 
	d="
M269.056122,164.159210 
	C269.056122,164.159210 269.006989,164.513000 268.724182,164.695435 
	C268.441345,164.877869 267.957916,164.962097 267.638855,164.992523 
	C267.012634,165.492264 266.705536,165.961563 266.398438,166.430862 
	C266.398438,166.430862 265.996185,166.353058 265.830658,166.288956 
	C260.453796,169.831680 255.242447,173.438507 250.031097,177.045334 
	C250.031097,177.045334 249.997849,177.002655 249.629074,177.003860 
	C245.422424,178.559097 243.074036,177.730972 242.824356,173.161026 
	C242.711243,171.090790 242.296692,169.037048 242.018906,166.975815 
	C242.018906,166.975815 242.206131,166.758347 242.712967,166.821472 
	C244.140854,166.240692 245.061905,165.596786 245.982956,164.952866 
	C245.982956,164.952866 245.989975,165.004898 246.322205,165.016953 
	C247.458206,164.394180 248.261993,163.759369 249.065765,163.124542 
	C249.065765,163.124542 249.080688,163.040833 249.408936,163.052063 
	C250.156174,162.701263 250.575180,162.339249 250.994171,161.977219 
	C250.994171,161.977219 250.999405,162.002335 251.346786,162.012466 
	C252.455185,161.335052 253.216217,160.647507 253.977234,159.959961 
	C253.977234,159.959961 253.995239,160.003662 254.342697,160.008484 
	C255.795807,159.011124 256.901459,158.008942 258.007111,157.006760 
	C258.007111,157.006760 258.000000,157.000000 258.323914,156.993210 
	C258.993317,156.531708 259.338776,156.076996 259.684235,155.622284 
	C259.684235,155.622284 259.851746,156.014618 260.119141,155.910812 
	C265.285980,152.462402 270.288025,149.210510 271.983887,142.971405 
	C271.983887,142.971405 272.001892,142.999390 272.347656,142.969330 
	C273.452850,141.611832 274.212341,140.284393 274.971802,138.956970 
	C274.971802,138.956955 275.003845,138.994720 275.333160,138.944687 
	C276.095642,137.911987 276.528809,136.929337 276.961975,135.946686 
	C276.961975,135.946671 277.003265,135.990280 277.293915,135.855713 
	C280.009674,131.441483 282.760376,127.305595 284.737457,122.828094 
	C285.919861,120.150200 284.591888,117.965073 281.125702,118.007172 
	C279.974182,118.021156 278.810883,117.910637 277.669037,117.745697 
	C259.304993,115.093025 242.254684,119.037567 226.229538,128.028564 
	C225.636505,128.361298 225.397171,129.324463 224.993027,129.993851 
	C224.993027,129.993851 225.000000,130.000000 224.631348,129.979309 
	C222.299011,131.442963 220.335312,132.927322 218.371628,134.411682 
	C218.371628,134.411682 217.977432,134.134827 217.811951,134.174896 
	C216.766846,135.149445 215.887207,136.083908 215.007568,137.018372 
	C215.007568,137.018372 215.000198,136.998459 214.685181,137.014389 
	C214.033295,137.491180 213.696442,137.952042 213.359589,138.412903 
	C213.359589,138.412903 212.972916,138.271927 212.875977,138.309906 
	C212.610855,138.669662 212.442673,138.991455 212.274506,139.313248 
	C212.274506,139.313248 212.154175,139.155441 211.881790,139.223633 
	C209.505905,141.643616 207.402405,143.995438 205.298889,146.347260 
	C205.298889,146.347244 205.136200,146.140656 204.944763,146.244537 
	C204.654785,146.693588 204.556259,147.038742 204.457733,147.383896 
	C204.299561,147.328445 204.141388,147.272995 203.886475,147.299896 
	C203.540604,147.941422 203.291473,148.500565 203.042343,149.059723 
	C203.042343,149.059723 202.999664,149.004684 202.667496,149.040833 
	C201.567627,150.400558 200.799911,151.724136 200.032196,153.047714 
	C200.032211,153.047714 199.997726,153.003799 199.671600,153.048645 
	C198.899277,154.067413 198.453094,155.041336 198.006897,156.015259 
	C198.006897,156.015259 197.998474,156.000702 197.654999,156.044067 
	C196.197678,158.378326 195.083847,160.669220 193.970001,162.960114 
	C193.970001,162.960114 194.004761,162.990021 193.630386,163.046051 
	C192.823120,164.382263 192.390213,165.662430 191.957321,166.942612 
	C191.957321,166.942612 192.007263,166.980759 191.576706,166.965149 
	C187.870560,166.225647 184.594971,165.501740 181.111252,164.731842 
	C182.171036,161.117477 183.073334,158.040207 183.975647,154.962936 
	C183.975647,154.962936 184.004654,154.994064 184.244659,154.838074 
	C184.588715,154.306030 184.692780,153.929962 184.796844,153.553909 
	C184.796844,153.553909 184.819809,153.238266 185.282120,153.073425 
	C186.152695,151.924026 186.560944,150.939468 186.969208,149.954910 
	C186.969208,149.954910 187.003830,149.993698 187.285461,149.866348 
	C188.032913,148.808609 188.498734,147.878220 188.964569,146.947815 
	C188.964554,146.947815 189.003265,146.993637 189.326660,146.961548 
	C194.707901,141.502365 199.770920,136.080109 204.820694,130.645554 
	C206.560883,128.772781 208.268082,126.869354 209.990326,124.979919 
	C209.990326,124.979919 209.999069,125.001808 210.342285,124.989517 
	C212.014343,123.855309 213.343216,122.733391 214.672073,121.611465 
	C214.781174,121.740974 214.890274,121.870491 215.180756,121.904083 
	C216.567383,120.853500 217.772644,119.898842 218.977890,118.944176 
	C218.977890,118.944176 218.990646,119.003197 219.350189,119.010544 
	C233.370987,113.372665 246.812531,107.191086 262.104401,107.023071 
	C273.412048,106.898819 284.550110,107.414314 295.459717,110.658913 
	C298.114624,111.448486 298.802307,112.785698 298.069061,115.441360 
	C295.232147,125.715866 291.692505,135.592712 284.779846,144.012848 
	C283.071136,146.094193 282.370911,149.003479 281.207092,151.532166 
	C280.970825,151.955551 280.734589,152.378952 280.023132,152.996490 
	C279.385895,153.495148 279.223785,153.799652 279.061707,154.104156 
	C279.061707,154.104156 279.021210,154.026459 278.805389,154.128632 
	C278.430084,154.542374 278.270599,154.853943 278.111084,155.165497 
	C278.111084,155.165497 278.073547,155.069824 277.850586,155.159500 
	C277.473389,155.571594 277.319214,155.894012 277.165039,156.216446 
	C277.165039,156.216446 277.119843,156.118576 276.882263,156.216431 
	C276.485565,156.665710 276.326447,157.017151 276.167328,157.368591 
	C275.736542,157.898712 275.305725,158.428848 274.333313,159.110016 
	C273.600555,159.601410 273.409393,159.941742 273.218262,160.282089 
	C273.218262,160.282089 273.198944,160.163651 272.961609,160.216034 
	C272.518951,160.573425 272.313599,160.878448 272.092285,161.130829 
	C272.076385,161.078186 272.181885,161.109314 271.909607,161.189941 
	C271.486694,161.599609 271.335999,161.928665 271.185333,162.257721 
	C271.185333,162.257721 271.124451,162.153763 270.903687,162.209351 
	C270.495453,162.571335 270.307983,162.877716 270.120514,163.184097 
	C270.120514,163.184097 270.086304,163.084793 269.858734,163.161285 
	C269.439484,163.544907 269.247803,163.852066 269.056122,164.159210 
z"/>
<path fill="#11468F" opacity="1.000000" stroke="none" 
	d="
M424.971619,182.026352 
	C424.056274,181.021637 423.095459,180.354172 422.831238,179.476898 
	C421.905426,176.403076 421.219666,173.256973 420.442749,170.138321 
	C422.956665,169.749985 425.459412,169.234634 427.987915,169.012268 
	C430.132843,168.823624 432.307495,168.973343 434.379242,168.973343 
	C437.692749,175.588211 441.738159,177.750183 448.428711,175.863754 
	C450.339386,175.325058 451.792511,173.163651 453.455475,171.746338 
	C452.013367,170.201370 450.852142,167.960678 449.075806,167.243546 
	C444.008850,165.197937 438.580536,164.053268 433.496216,162.043518 
	C423.270996,158.001648 420.190918,153.532227 420.923187,144.772430 
	C421.542389,137.365112 426.889740,131.759918 436.032288,129.664688 
	C443.817932,127.880394 451.600281,128.083817 458.915070,131.824493 
	C465.211487,135.044373 468.534363,140.157623 468.627655,147.802124 
	C463.731628,147.802124 459.160400,147.802124 454.503571,147.802124 
	C451.774994,142.012390 447.027802,139.585617 441.011597,141.640427 
	C439.109711,142.289993 437.706238,144.398987 436.074677,145.840073 
	C437.570587,147.358551 438.800751,149.592407 440.610931,150.264847 
	C446.667877,152.514877 453.041840,153.917480 459.081268,156.206833 
	C463.636383,157.933517 467.633484,160.712158 469.048676,165.950974 
	C471.223511,174.001358 468.196442,181.701309 460.328674,185.035156 
	C448.336731,190.116547 436.391571,190.109833 424.971619,182.026352 
z"/>
<path fill="#E9690D" opacity="1.000000" stroke="none" 
	d="
M237.029495,228.058975 
	C233.696091,242.910812 225.891663,255.329559 215.904114,266.504089 
	C213.059616,269.686676 209.816559,272.513000 206.837997,275.422821 
	C179.575729,254.777512 166.681412,215.071960 173.478912,186.686005 
	C177.263611,187.700424 181.041443,188.712997 185.358887,189.870209 
	C182.816116,215.091782 188.991501,237.643692 206.919205,258.041656 
	C211.285843,251.193222 215.734604,245.093445 219.190063,238.475067 
	C221.341003,234.355255 223.478912,231.366837 228.351303,230.616531 
	C231.087936,230.195114 233.674866,228.801559 236.695541,227.963898 
	C237.061844,228.081833 237.029495,228.058975 237.029495,228.058975 
z"/>
<path fill="#0F458F" opacity="1.000000" stroke="none" 
	d="
M229.650406,86.996536 
	C229.066605,105.499466 209.766922,115.848366 194.553375,106.872963 
	C185.355835,101.446777 181.099503,90.253510 184.253754,80.050644 
	C187.444275,69.730469 197.213608,63.229565 208.483917,63.926907 
	C218.742920,64.561676 227.394424,72.579994 229.176285,83.119637 
	C229.370468,84.268166 229.494568,85.428543 229.650406,86.996536 
z"/>
<path fill="#E96A0E" opacity="1.000000" stroke="none" 
	d="
M201.894974,125.941879 
	C199.660660,128.030716 197.426331,130.119537 194.771957,132.572205 
	C194.125549,133.217712 193.899185,133.499374 193.672821,133.781052 
	C182.782684,126.848122 171.294830,121.371414 158.370697,119.480225 
	C148.615997,118.052818 138.884796,117.909492 127.996132,120.281273 
	C131.212540,126.298874 133.784668,132.011078 137.199768,137.164673 
	C139.265900,140.282593 139.727570,142.895447 138.624313,146.326752 
	C137.582977,149.565536 137.123505,152.991379 136.222260,157.203354 
	C123.760498,143.751953 116.045715,128.740128 112.225502,110.901886 
	C142.425751,100.873276 170.659592,104.018906 197.809204,121.087509 
	C198.427063,121.670860 198.694687,121.770271 199.028275,121.692108 
	C199.492889,122.069397 199.957489,122.446686 200.844238,123.205917 
	C201.475922,124.372528 201.685440,125.157204 201.894974,125.941879 
z"/>
<path fill="#E8680C" opacity="1.000000" stroke="none" 
	d="
M802.124451,210.714691 
	C797.806152,211.298233 796.067261,209.709595 796.496643,205.735718 
	C796.656555,204.255417 796.601501,202.739822 796.515930,201.247696 
	C796.350708,198.364609 797.446594,197.198074 800.527405,197.013947 
	C808.081909,196.562469 809.945251,194.370422 809.961975,186.624802 
	C809.999695,169.157211 810.059998,151.688736 809.908203,134.222382 
	C809.876587,130.584457 810.929993,129.170914 814.697998,129.246796 
	C828.352844,129.521790 825.845398,127.886208 825.959351,140.148636 
	C826.103210,155.618668 826.022461,171.091171 825.964050,186.562332 
	C825.953491,189.376312 825.811584,192.227341 825.341370,194.995193 
	C823.747314,204.377792 819.430420,208.555954 810.008606,209.995178 
	C807.548279,210.371017 805.046143,210.473923 802.124451,210.714691 
z"/>
<path fill="#E86A0E" opacity="1.000000" stroke="none" 
	d="
M241.485413,203.516357 
	C245.866028,197.353165 250.856689,191.831223 253.822723,185.378616 
	C256.337128,179.908630 259.164062,175.637665 264.472839,172.837860 
	C266.860840,171.578400 268.874207,169.608673 271.057587,167.961227 
	C271.562408,168.181854 272.067230,168.402481 272.572052,168.623108 
	C271.405029,173.993347 270.661285,179.498428 269.000702,184.711456 
	C259.816193,213.544403 230.717163,232.544296 200.648071,229.876648 
	C195.446716,229.415192 192.331467,227.635696 191.695343,222.222961 
	C191.426559,219.935852 190.705795,217.701828 189.991943,214.573608 
	C209.148346,219.429718 226.294693,216.443527 241.485413,203.516357 
z"/>
<path fill="#E86A0E" opacity="1.000000" stroke="none" 
	d="
M155.788513,178.911713 
	C157.645645,183.241806 158.523453,187.984894 161.296982,190.961746 
	C168.403534,198.589218 167.796799,207.775757 168.329758,217.957596 
	C165.041519,215.134064 162.154190,212.974594 159.639114,210.445007 
	C137.827621,188.507523 134.340195,154.448593 150.782349,128.265915 
	C153.474075,123.979584 156.260361,122.612846 160.861328,124.114990 
	C163.327225,124.920082 165.867111,125.498512 168.936966,126.332222 
	C155.172379,141.721664 150.620697,158.957199 155.788513,178.911713 
z"/>
<path fill="#17498E" opacity="1.000000" stroke="none" 
	d="
M451.497986,243.545776 
	C452.333740,255.090759 449.676056,264.961060 439.991608,271.463867 
	C430.873596,277.586334 420.887817,277.881256 411.045013,273.280151 
	C399.093994,267.693481 393.466278,253.156708 397.222656,238.729584 
	C400.589203,225.799652 411.598328,218.073990 425.677063,218.761658 
	C439.793091,219.451157 449.100769,228.254318 451.497986,243.545776 
M432.243866,226.906845 
	C428.661835,226.390305 424.985504,225.080261 421.513885,225.492828 
	C405.385925,227.409485 398.015717,249.002594 408.624847,262.670990 
	C415.505920,271.536255 431.387085,271.897461 438.745911,263.350311 
	C446.965271,253.803680 445.631134,232.563507 432.243866,226.906845 
z"/>
<path fill="#1B4C91" opacity="1.000000" stroke="none" 
	d="
M379.131378,251.031036 
	C377.614136,250.699326 376.099884,250.097565 374.579163,250.080719 
	C366.140198,249.987244 357.699677,250.035904 348.932434,250.035904 
	C348.932434,258.613647 348.932434,266.715149 348.932434,275.266510 
	C346.257843,275.266510 343.909027,275.266510 340.973999,275.266510 
	C340.973999,266.009247 340.973999,256.745911 340.973999,247.482590 
	C340.973999,238.206635 340.973999,228.930695 340.973999,219.403458 
	C343.686707,219.403458 345.929688,219.403458 348.733276,219.403458 
	C348.733276,227.600464 348.733276,235.658905 348.733276,244.196289 
	C358.877197,244.196289 368.471222,244.196289 378.826965,243.805054 
	C379.470398,235.619766 379.352081,227.825684 379.233765,220.031616 
	C381.511353,219.641876 383.788971,219.252136 386.743774,218.746506 
	C386.743774,237.462860 386.743774,255.398087 386.155762,273.697144 
	C380.806549,274.842865 379.775513,272.531158 379.895264,268.167633 
	C380.051758,262.466736 379.422546,256.744232 379.131378,251.031036 
z"/>
<path fill="#17498E" opacity="1.000000" stroke="none" 
	d="
M501.771301,265.906158 
	C501.771423,250.155457 501.771423,234.891357 501.771423,219.797897 
	C509.620972,219.797897 517.104248,219.159363 524.432007,219.954468 
	C534.282776,221.023346 539.266541,227.261444 539.237976,236.724564 
	C539.210449,245.845581 533.728577,252.480026 524.475769,253.924683 
	C519.612427,254.684021 514.629578,254.678375 509.318848,255.044495 
	C509.318848,261.872986 509.318848,268.463165 509.318848,275.374298 
	C506.692596,275.374298 504.469910,275.374298 501.771149,275.374298 
	C501.771149,272.314117 501.771149,269.353455 501.771301,265.906158 
M521.034851,248.196426 
	C527.927551,246.846100 531.223694,243.581345 531.720032,237.613159 
	C532.140137,232.561249 529.647400,227.566940 525.071960,226.523529 
	C520.050903,225.378525 514.768799,225.378357 509.505859,224.870193 
	C509.505859,233.331238 509.505859,240.605194 509.505859,248.306778 
	C513.219421,248.306778 516.678650,248.306778 521.034851,248.196426 
z"/>
<path fill="#144890" opacity="1.000000" stroke="none" 
	d="
M408.378510,187.531494 
	C394.892700,187.648560 394.893219,187.648560 394.893707,174.680206 
	C394.894287,159.880463 394.893829,145.080719 394.893829,129.421967 
	C399.667633,129.421967 404.097321,129.255798 408.493530,129.565125 
	C409.350983,129.625458 410.756104,131.527222 410.764801,132.588989 
	C410.906891,149.904343 410.898163,167.221420 410.776917,184.537094 
	C410.769989,185.524429 409.502960,186.502945 408.378510,187.531494 
z"/>
<path fill="#17488E" opacity="1.000000" stroke="none" 
	d="
M614.078918,260.130676 
	C612.773376,263.363312 611.117004,266.504456 610.244568,269.850037 
	C608.933716,274.876892 606.114136,276.734375 600.673401,275.291107 
	C601.007263,274.140564 601.252808,272.935486 601.699097,271.809937 
	C608.129089,255.592224 614.641724,239.406937 620.983215,223.154831 
	C622.080261,220.343399 623.362549,219.003098 626.666931,219.011627 
	C629.842590,219.019821 630.948792,220.419434 631.960815,222.991943 
	C638.764709,240.287201 645.682556,257.537598 652.577209,274.836914 
	C646.162964,276.548431 645.249634,276.102478 643.058167,270.509644 
	C641.786804,267.265137 640.480835,264.034210 638.804199,260.132568 
	C632.651001,259.311157 626.883301,259.029938 621.117188,259.058167 
	C618.769409,259.069641 616.424927,259.753021 614.078918,260.130676 
M624.692078,232.288757 
	C621.849976,239.648819 619.007935,247.008881 616.084473,254.579620 
	C623.265137,254.579620 629.827026,254.579620 636.919189,254.579620 
	C633.406128,245.402115 630.034363,236.593781 626.467834,227.276627 
	C625.816345,229.107391 625.374451,230.349274 624.692078,232.288757 
z"/>
<path fill="#E86A0E" opacity="1.000000" stroke="none" 
	d="
M170.987442,181.157471 
	C169.932037,180.672882 168.878387,180.184433 167.820953,179.704300 
	C158.044159,175.265182 156.264145,171.559082 158.579468,159.956390 
	C159.358582,160.307663 160.120316,160.541641 160.764603,160.957550 
	C177.569962,171.806000 195.915192,176.139313 215.800766,174.062943 
	C216.758438,173.962936 217.753250,174.218781 219.002182,174.880768 
	C219.361771,175.794388 219.577179,176.007751 219.919830,176.092682 
	C219.919830,176.092682 219.989288,176.029114 219.911316,176.381104 
	C220.186264,177.547836 220.539200,178.362564 220.892120,179.177292 
	C220.892120,179.177292 220.893204,179.606033 220.927765,180.129089 
	C221.212585,181.243668 221.462845,181.835159 221.713104,182.426651 
	C221.713104,182.426651 221.688324,182.752930 221.741180,183.257446 
	C221.892685,184.504272 221.991318,185.246582 222.089966,185.988876 
	C220.963531,186.326965 219.837082,186.665070 217.911774,187.008179 
	C209.408752,187.042404 201.704590,187.071625 194.000427,187.100861 
	C193.560959,187.028503 193.121475,186.956146 192.050934,186.682770 
	C188.613068,186.009964 185.806290,185.538208 182.999512,185.066467 
	C182.999512,185.066467 182.588333,184.899155 182.103668,184.659149 
	C179.744705,183.962173 177.870377,183.505203 175.996063,183.048218 
	C175.996063,183.048233 175.649765,182.855316 175.244888,182.604507 
	C174.227768,182.239807 173.615524,182.125931 173.003281,182.012039 
	C173.003281,182.012039 172.722748,181.800247 172.386597,181.560272 
	C171.696121,181.266022 171.341782,181.211746 170.987442,181.157471 
z"/>
<path fill="#E86A0E" opacity="1.000000" stroke="none" 
	d="
M229.821732,206.898621 
	C229.434631,206.928757 229.047546,206.958893 228.390808,206.489105 
	C227.752914,200.658691 227.384644,195.328201 227.016373,189.997711 
	C227.013748,189.550613 227.011124,189.103516 226.990204,188.007324 
	C226.750992,186.757339 226.530075,186.156433 226.309158,185.555527 
	C226.228653,184.910172 226.148148,184.264816 226.014374,182.947876 
	C225.334579,180.490784 224.708054,178.705261 224.081512,176.919754 
	C224.081512,176.919754 224.004120,176.979156 224.081039,176.627808 
	C223.795975,175.477280 223.433990,174.678116 223.072021,173.878952 
	C223.072006,173.878952 223.055466,173.423828 222.988159,172.936279 
	C222.705124,172.155548 222.489395,171.862381 222.273666,171.569199 
	C222.273666,171.569199 222.239929,171.240723 222.152374,170.802673 
	C221.746185,169.850098 221.427536,169.335541 221.108887,168.820984 
	C221.108887,168.820984 221.065750,168.390167 220.976105,167.930069 
	C220.652328,167.210129 220.418198,166.950287 220.184082,166.690445 
	C220.184082,166.690445 220.127213,166.312576 220.022980,165.882782 
	C219.678329,165.188705 219.437897,164.924438 219.197464,164.660172 
	C218.886139,163.930542 218.574814,163.200912 218.068863,161.976257 
	C217.625229,161.245239 217.376251,161.009262 217.127258,160.773270 
	C217.127258,160.773270 217.055740,160.361786 216.939819,159.939713 
	C216.575256,159.314316 216.326614,159.110992 216.077972,158.907669 
	C216.077972,158.907669 216.006775,158.982559 216.036255,158.669144 
	C215.697906,157.927551 215.330078,157.499374 214.962234,157.071213 
	C214.915115,156.911789 214.900726,156.732040 214.816193,156.595840 
	C209.011826,147.243027 209.011368,147.243317 218.783752,140.048721 
	C220.088791,141.615799 221.512848,143.147568 222.737732,144.824753 
	C232.861038,158.686127 238.449142,174.263367 240.844437,191.208603 
	C241.641190,196.845169 239.818909,200.439957 234.767929,203.497177 
	C233.835281,204.205627 233.401535,204.591797 232.967773,204.977966 
	C232.455688,205.233185 231.943604,205.488403 230.968063,205.960449 
	C230.276993,206.417725 230.049362,206.658173 229.821732,206.898621 
z"/>
<path fill="#17498D" opacity="1.000000" stroke="none" 
	d="
M492.102478,259.865479 
	C490.147675,273.547455 477.506653,279.939331 463.982361,274.473999 
	C462.605347,273.917511 461.267578,273.206512 460.022217,272.397064 
	C458.640656,271.499115 457.386078,270.405823 455.576263,269.012848 
	C456.862488,267.219269 458.034607,265.584778 459.301941,263.817566 
	C461.813141,265.391418 463.768982,267.423035 466.033844,267.862762 
	C470.268890,268.684967 474.830597,269.391815 478.980713,268.634979 
	C482.981049,267.905487 484.870361,264.132416 484.990417,259.858582 
	C485.106598,255.721069 482.728119,253.363953 479.264191,251.970245 
	C475.575226,250.485992 471.722656,249.410599 468.023254,247.949692 
	C461.204193,245.256836 457.912842,240.513718 458.085724,233.964722 
	C458.261536,227.304230 462.504059,221.489395 469.246521,219.635178 
	C477.046722,217.490036 484.358246,218.619781 490.693726,224.239883 
	C489.620209,228.621475 488.033630,230.444595 483.576782,227.311264 
	C479.403198,224.377075 474.508789,224.019302 469.806396,226.346405 
	C463.956207,229.241501 463.492340,236.805527 469.202057,239.937012 
	C473.378662,242.227692 478.118378,243.476410 482.562744,245.297821 
	C488.852325,247.875443 492.648254,252.209183 492.102478,259.865479 
z"/>
<path fill="#205093" opacity="1.000000" stroke="none" 
	d="
M587.725952,274.958435 
	C585.431763,275.256531 583.137573,275.554657 580.320496,275.920685 
	C580.320496,258.885590 580.320496,242.664032 580.320496,225.938034 
	C574.145935,225.938034 568.406738,225.938034 562.360352,225.938034 
	C562.360352,223.537079 562.360352,221.642227 562.360352,219.435394 
	C576.796875,219.435394 591.174255,219.435394 605.855591,219.435394 
	C605.855591,221.441132 605.855591,223.346481 605.855591,225.892517 
	C600.198547,225.892517 594.592346,225.892517 588.207764,226.232910 
	C587.307434,242.266022 587.180054,257.958710 587.091614,273.651611 
	C587.089233,274.086029 587.505127,274.522766 587.725952,274.958435 
z"/>
<path fill="#1E4E92" opacity="1.000000" stroke="none" 
	d="
M666.783936,259.969910 
	C666.783936,263.109436 666.783936,265.752747 666.783936,268.982727 
	C674.902832,268.982727 682.780273,268.982727 690.836426,268.982727 
	C690.836426,271.352722 690.836426,273.132416 690.836426,275.322144 
	C680.458130,275.322144 670.105774,275.322144 659.359863,275.322144 
	C659.359863,256.919830 659.359863,238.410538 659.359863,219.518341 
	C661.559326,219.518341 663.906006,219.518341 666.783875,219.518341 
	C666.783875,232.965210 666.783875,246.219467 666.783936,259.969910 
z"/>
<path fill="#2E2E2C" opacity="1.000000" stroke="none" 
	d="
M524.160889,88.719238 
	C525.659302,92.956291 527.054016,96.814468 529.006226,102.214798 
	C531.314453,95.950813 533.424194,91.061417 534.891724,85.986320 
	C536.131042,81.700294 538.329773,80.320473 542.684082,81.979179 
	C542.684082,90.502609 542.684082,99.071037 542.684082,107.791763 
	C541.337036,107.791763 540.118286,107.791763 538.599976,107.791763 
	C538.599976,101.742050 538.599976,95.959541 538.599976,90.177032 
	C538.246277,90.074249 537.892639,89.971466 537.538940,89.868683 
	C535.715698,94.795677 534.021912,99.777184 531.986511,104.614891 
	C531.411194,105.982147 529.836670,106.928932 528.720398,108.068565 
	C527.747559,106.964417 526.383667,106.015862 525.871521,104.728455 
	C523.942261,99.878571 522.290222,94.918411 519.630432,90.143616 
	C519.630432,95.962059 519.630432,101.780502 519.630432,107.598946 
	C519.199158,107.911774 518.767883,108.224609 518.336609,108.537437 
	C517.358459,107.637589 515.557800,106.761086 515.531433,105.834213 
	C515.306152,97.898354 515.402222,89.953369 515.402222,82.206200 
	C522.457825,79.100822 522.577637,84.602722 524.160889,88.719238 
z"/>
<path fill="#1B4C91" opacity="1.000000" stroke="none" 
	d="
M548.442749,275.557312 
	C547.766602,275.033081 547.294800,274.625214 547.293945,274.216370 
	C547.257385,256.095184 547.262390,237.973923 547.262390,219.500168 
	C549.805603,219.500168 552.045044,219.500168 554.652954,219.500168 
	C554.652954,237.954651 554.652954,256.506256 554.652954,275.673187 
	C552.737366,275.673187 550.802063,275.673187 548.442749,275.557312 
z"/>
<path fill="#E76B12" opacity="1.000000" stroke="none" 
	d="
M266.182495,135.799744 
	C268.588013,139.308868 267.723572,141.845856 265.040222,144.368256 
	C262.877655,146.401077 261.094025,148.836960 259.180634,151.049683 
	C254.280502,142.333008 249.803680,134.369324 245.030334,125.878181 
	C248.558060,125.103798 252.611481,124.013573 256.736847,123.448181 
	C257.779449,123.305290 259.426880,124.583893 260.147858,125.648476 
	C262.282837,128.800934 264.093872,132.172775 266.182495,135.799744 
z"/>
<path fill="#E76B12" opacity="1.000000" stroke="none" 
	d="
M817.986633,124.240051 
	C812.453735,124.001221 809.169006,121.318298 808.306091,116.285423 
	C807.512146,111.654396 809.722656,108.197449 813.884094,106.238014 
	C818.110840,104.247803 822.447998,104.946228 825.051819,108.624535 
	C826.725525,110.988861 827.520081,114.747406 827.095825,117.644859 
	C826.451660,122.044113 822.754395,123.984566 817.986633,124.240051 
z"/>
<path fill="#14478F" opacity="1.000000" stroke="none" 
	d="
M402.165314,105.331772 
	C406.877991,105.548897 410.262115,107.358170 411.952728,111.495827 
	C413.823120,116.073502 411.720093,121.117592 407.253601,123.241333 
	C402.462067,125.519600 396.638153,123.833839 394.192657,119.460732 
	C391.793518,115.170517 392.990387,109.935646 397.203888,107.184807 
	C398.551605,106.304924 400.247681,105.958702 402.165314,105.331772 
z"/>
<path fill="#232321" opacity="1.000000" stroke="none" 
	d="
M629.900513,98.881699 
	C631.757446,101.854790 633.436157,104.499863 635.114929,107.144928 
	C634.835144,107.599373 634.555420,108.053825 634.275635,108.508270 
	C632.577942,107.522026 630.540955,106.848503 629.269775,105.469193 
	C627.733582,103.802338 627.097473,101.316673 625.593628,99.605644 
	C624.505981,98.368118 622.638977,97.815506 620.212524,96.445221 
	C620.212524,101.066193 620.212524,104.304413 620.212524,107.788010 
	C618.587097,107.788010 617.386353,107.788010 616.018799,107.788010 
	C616.018799,99.111092 616.018799,90.679665 616.018799,81.366966 
	C620.136292,81.602440 624.265686,81.349648 628.164795,82.179077 
	C633.664795,83.349045 635.180054,90.294167 631.145691,94.478714 
	C630.020569,95.645706 627.541809,96.261261 629.900513,98.881699 
M628.881653,90.252876 
	C627.987732,85.325562 626.628052,84.593063 620.278809,85.706863 
	C620.278809,88.284256 620.278809,90.882042 620.278809,95.193520 
	C623.608582,93.538216 626.141907,92.278877 628.881653,90.252876 
z"/>
<path fill="#282827" opacity="1.000000" stroke="none" 
	d="
M559.656982,81.292145 
	C562.238708,86.400986 564.514832,91.457214 566.615173,96.585426 
	C568.054932,100.100731 569.250366,103.716118 570.563049,107.308792 
	C567.411194,109.116364 565.509338,108.038864 565.032288,104.757034 
	C564.370361,100.203545 561.117615,100.959114 558.018555,100.762901 
	C554.826111,100.560783 552.550903,101.089706 552.015564,104.758240 
	C551.552002,107.934738 549.681519,108.853714 546.463562,107.516754 
	C549.444702,99.457520 552.322937,91.369141 555.518860,83.408310 
	C555.939087,82.361488 557.983948,81.966911 559.656982,81.292145 
M561.500183,94.218857 
	C560.577942,91.608505 559.655640,88.998154 558.524963,85.798073 
	C557.174377,89.818832 556.040894,93.193314 554.600525,97.481575 
	C557.345642,95.753258 560.601990,99.314659 561.500183,94.218857 
z"/>
<path fill="#343432" opacity="1.000000" stroke="none" 
	d="
M574.300171,82.581810 
	C578.825378,81.892136 583.238770,81.511124 587.650818,81.526398 
	C588.324219,81.528725 588.991333,83.364372 590.219238,85.174561 
	C585.755493,85.174561 582.497437,85.174561 579.101318,85.174561 
	C579.101318,87.661575 579.101318,89.752686 579.101318,91.807350 
	C588.351990,92.898376 588.351990,92.898376 588.376282,95.981812 
	C585.433777,95.981812 582.487366,95.981812 579.196411,95.981812 
	C579.196411,98.660484 579.196411,101.052048 579.196411,103.619049 
	C581.840698,106.049110 587.664490,101.459404 589.891296,107.860519 
	C584.237122,107.860519 579.495728,107.860519 574.187988,107.860519 
	C574.187988,99.510033 574.187988,91.264961 574.300171,82.581810 
z"/>
<path fill="#2A2A28" opacity="1.000000" stroke="none" 
	d="
M594.996460,94.009712 
	C594.996460,89.704651 594.996460,85.895004 594.996460,82.142776 
	C604.097351,80.072556 609.679626,81.136299 609.676697,85.160515 
	C608.053772,85.160515 606.427856,85.160522 604.801880,85.160522 
	C603.315002,85.160522 601.828186,85.160515 599.746948,85.160515 
	C599.611267,87.384033 599.486450,89.429619 599.377441,91.215294 
	C602.243774,94.247078 607.971619,89.342422 609.784180,95.880463 
	C606.191650,95.880463 603.116211,95.880463 599.739441,95.880463 
	C599.739441,98.736908 599.739441,101.136597 599.739441,103.623947 
	C602.654846,105.837143 608.173828,101.903221 611.170349,107.852539 
	C605.048889,107.852539 600.298340,107.852539 594.996460,107.852539 
	C594.996460,103.355515 594.996460,98.930321 594.996460,94.009712 
z"/>
<path fill="#2A2A28" opacity="1.000000" stroke="none" 
	d="
M660.174561,96.040115 
	C662.684387,99.383972 662.869873,102.628479 660.340088,105.451416 
	C656.708740,109.503616 651.829346,108.663681 647.264038,107.756279 
	C646.110962,107.527084 645.304077,105.555710 644.338074,104.384926 
	C644.628357,104.043327 644.918579,103.701729 645.208801,103.360130 
	C647.382935,103.809250 649.617493,104.791718 651.713745,104.554146 
	C653.720764,104.326691 655.584229,102.831764 657.510742,101.893890 
	C656.336853,100.299950 655.370667,98.472900 653.924377,97.184807 
	C652.737061,96.127304 650.456604,96.099419 649.584290,94.927620 
	C647.838013,92.582062 645.718445,89.814201 645.589539,87.132385 
	C645.405518,83.305367 648.850037,81.427711 652.412537,81.229790 
	C655.281921,81.070396 658.200073,81.790596 661.096619,82.120537 
	C661.270081,82.735809 661.443604,83.351082 661.617126,83.966354 
	C660.449219,84.531616 659.318298,85.441895 658.103699,85.572327 
	C656.677368,85.725487 655.085266,84.784843 653.736633,85.086273 
	C652.348816,85.396454 650.356689,86.447426 650.115356,87.511444 
	C649.853333,88.666321 650.963257,90.688019 652.079529,91.485641 
	C654.482056,93.202377 657.272400,94.376381 660.174561,96.040115 
z"/>
<path fill="#DD762B" opacity="1.000000" stroke="none" 
	d="
M281.545258,151.402969 
	C282.370911,149.003479 283.071136,146.094193 284.779846,144.012848 
	C291.692505,135.592712 295.232147,125.715866 298.069061,115.441360 
	C298.802307,112.785698 298.114624,111.448486 295.459717,110.658913 
	C284.550110,107.414314 273.412048,106.898819 262.104401,107.023071 
	C246.812531,107.191086 233.370987,113.372665 219.328186,118.989845 
	C233.225906,109.442703 249.227646,105.667107 266.105652,105.132721 
	C277.838623,104.761230 289.230164,106.773308 300.644379,110.915047 
	C297.586395,126.151474 291.299377,139.425629 281.545258,151.402969 
z"/>
<path fill="#DD762B" opacity="1.000000" stroke="none" 
	d="
M225.352386,129.960541 
	C225.397171,129.324463 225.636505,128.361298 226.229538,128.028564 
	C242.254684,119.037567 259.304993,115.093025 277.669037,117.745697 
	C278.810883,117.910637 279.974182,118.021156 281.125702,118.007172 
	C284.591888,117.965073 285.919861,120.150200 284.737457,122.828094 
	C282.760376,127.305595 280.009674,131.441483 277.264465,135.849976 
	C279.327362,130.978241 281.710388,125.977692 284.445496,120.238319 
	C262.972046,116.293190 243.774048,119.575516 225.352386,129.960541 
z"/>
<path fill="#DD762B" opacity="1.000000" stroke="none" 
	d="
M209.647034,125.040344 
	C208.268082,126.869354 206.560883,128.772781 204.820694,130.645554 
	C199.770920,136.080109 194.707901,141.502365 189.299133,146.949799 
	C194.075516,138.137253 200.432236,130.448654 209.647034,125.040344 
z"/>
<path fill="#1B427A" opacity="1.000000" stroke="none" 
	d="
M587.860718,274.509003 
	C587.505127,274.522766 587.089233,274.086029 587.091614,273.651611 
	C587.180054,257.958710 587.307434,242.266022 587.748413,226.303467 
	C588.043335,242.042267 588.019348,258.050903 587.860718,274.509003 
z"/>
<path fill="#343432" opacity="1.000000" stroke="none" 
	d="
M636.969238,88.162476 
	C638.309204,85.392799 636.436584,80.103180 642.961487,81.869728 
	C641.996277,84.470695 641.220947,86.899307 640.165466,89.199310 
	C639.845337,89.896980 638.750671,90.239250 638.010803,90.744308 
	C637.648438,90.003838 637.286011,89.263367 636.969238,88.162476 
z"/>
<path fill="#DD762B" opacity="1.000000" stroke="none" 
	d="
M183.687744,155.145142 
	C183.073334,158.040207 182.171036,161.117477 181.111252,164.731842 
	C184.594971,165.501740 187.870560,166.225647 191.546494,166.957703 
	C191.006958,167.519135 189.936325,168.686569 189.149857,168.519135 
	C185.779892,167.801697 182.493637,166.691116 178.386383,165.493332 
	C180.231888,161.751129 181.815857,158.539246 183.687744,155.145142 
z"/>
<path fill="#DD762B" opacity="1.000000" stroke="none" 
	d="
M250.407196,177.023071 
	C255.242447,173.438507 260.453796,169.831680 266.029602,166.340698 
	C261.190491,169.971298 255.986893,173.486038 250.407196,177.023071 
z"/>
<path fill="#FDE7CC" opacity="1.000000" stroke="none" 
	d="
M194.272629,187.364624 
	C201.704590,187.071625 209.408752,187.042404 217.557526,187.084930 
	C210.241226,190.207138 202.405273,189.526688 194.272629,187.364624 
z"/>
<path fill="#1B427A" opacity="1.000000" stroke="none" 
	d="
M379.064392,251.493317 
	C379.422546,256.744232 380.051758,262.466736 379.895264,268.167633 
	C379.775513,272.531158 380.806549,274.842865 386.041382,274.097473 
	C384.319885,274.941467 382.124847,275.748901 378.997437,276.899353 
	C378.997437,267.660217 378.997437,259.807892 379.064392,251.493317 
z"/>
<path fill="#DD762B" opacity="1.000000" stroke="none" 
	d="
M271.677948,143.104980 
	C270.288025,149.210510 265.285980,152.462402 260.027924,155.716125 
	C263.570221,151.496353 267.471100,147.367447 271.677948,143.104980 
z"/>
<path fill="#DD762B" opacity="1.000000" stroke="none" 
	d="
M241.630890,166.997711 
	C242.296692,169.037048 242.711243,171.090790 242.824356,173.161026 
	C243.074036,177.730972 245.422424,178.559097 249.650787,177.019455 
	C247.976074,178.183487 245.910858,179.333145 243.476685,180.688187 
	C242.226654,176.542618 241.060974,172.978897 240.143478,169.352402 
	C239.980621,168.708725 240.850098,167.803864 241.630890,166.997711 
z"/>
<path fill="#1B427A" opacity="1.000000" stroke="none" 
	d="
M614.540833,260.129028 
	C616.424927,259.753021 618.769409,259.069641 621.117188,259.058167 
	C626.883301,259.029938 632.651001,259.311157 638.670532,259.796936 
	C630.949646,260.126373 622.976196,260.126862 614.540833,260.129028 
z"/>
<path fill="#1B427A" opacity="1.000000" stroke="none" 
	d="
M379.122772,220.487152 
	C379.352081,227.825684 379.470398,235.619766 379.284180,243.699097 
	C378.990356,236.303787 379.001068,228.623230 379.122772,220.487152 
z"/>
<path fill="#FDE7CC" opacity="1.000000" stroke="none" 
	d="
M226.735718,190.265442 
	C227.384644,195.328201 227.752914,200.658691 228.102585,206.446655 
	C227.541016,201.447144 226.998032,195.990158 226.735718,190.265442 
z"/>
<path fill="#DD762B" opacity="1.000000" stroke="none" 
	d="
M205.608459,146.226822 
	C207.402405,143.995438 209.505905,141.643616 211.966583,139.275146 
	C210.188522,141.541122 208.053284,143.823746 205.608459,146.226822 
z"/>
<path fill="#FDE7CC" opacity="1.000000" stroke="none" 
	d="
M183.225708,185.338837 
	C185.806290,185.538208 188.613068,186.009964 191.716980,186.708618 
	C189.160034,186.494080 186.305969,186.052658 183.225708,185.338837 
z"/>
<path fill="#DD762B" opacity="1.000000" stroke="none" 
	d="
M194.238525,162.764343 
	C195.083847,160.669220 196.197678,158.378326 197.662567,156.045959 
	C196.844757,158.192535 195.675903,160.380554 194.238525,162.764343 
z"/>
<path fill="#DD762B" opacity="1.000000" stroke="none" 
	d="
M218.696732,134.326370 
	C220.335312,132.927322 222.299011,131.442963 224.628860,129.975647 
	C223.003967,131.408829 221.012894,132.824936 218.696732,134.326370 
z"/>
<path fill="#FDE7CC" opacity="1.000000" stroke="none" 
	d="
M176.184433,183.368683 
	C177.870377,183.505203 179.744705,183.962173 181.881805,184.665314 
	C180.220657,184.504044 178.296738,184.096588 176.184433,183.368683 
z"/>
<path fill="#DD762B" opacity="1.000000" stroke="none" 
	d="
M274.684326,139.102783 
	C274.212341,140.284393 273.452850,141.611832 272.332520,142.962769 
	C272.780060,141.740372 273.588440,140.494492 274.684326,139.102783 
z"/>
<path fill="#FDE7CC" opacity="1.000000" stroke="none" 
	d="
M224.028625,177.306549 
	C224.708054,178.705261 225.334579,180.490784 225.906555,182.639587 
	C225.226578,181.233032 224.601151,179.463196 224.028625,177.306549 
z"/>
<path fill="#DD762B" opacity="1.000000" stroke="none" 
	d="
M214.349823,121.677284 
	C213.343216,122.733391 212.014343,123.855309 210.332138,124.982697 
	C211.328384,123.906479 212.677979,122.824791 214.349823,121.677284 
z"/>
<path fill="#DD762B" opacity="1.000000" stroke="none" 
	d="
M200.324402,152.909744 
	C200.799911,151.724136 201.567627,150.400558 202.698135,149.057327 
	C202.246155,150.282364 201.431381,151.527069 200.324402,152.909744 
z"/>
<path fill="#DD762B" opacity="1.000000" stroke="none" 
	d="
M257.688080,157.055206 
	C256.901459,158.008942 255.795807,159.011124 254.324707,159.992798 
	C255.095871,159.016083 256.232452,158.059875 257.688080,157.055206 
z"/>
<path fill="#DD762B" opacity="1.000000" stroke="none" 
	d="
M215.316849,136.963501 
	C215.887207,136.083908 216.766846,135.149445 218.001740,134.323608 
	C217.446716,135.257690 216.536423,136.083160 215.316849,136.963501 
z"/>
<path fill="#DD762B" opacity="1.000000" stroke="none" 
	d="
M218.646210,118.966003 
	C217.772644,119.898842 216.567383,120.853500 215.017715,121.709351 
	C215.887039,120.736305 217.100800,119.862068 218.646210,118.966003 
z"/>
<path fill="#DD762B" opacity="1.000000" stroke="none" 
	d="
M192.220062,166.750092 
	C192.390213,165.662430 192.823120,164.382263 193.609406,163.039154 
	C193.469467,164.170013 192.976135,165.363785 192.220062,166.750092 
z"/>
<path fill="#DD762B" opacity="1.000000" stroke="none" 
	d="
M245.641388,164.956177 
	C245.061905,165.596786 244.140854,166.240692 242.856445,166.823120 
	C243.428650,166.160919 244.364227,165.560196 245.641388,164.956177 
z"/>
<path fill="#DD762B" opacity="1.000000" stroke="none" 
	d="
M248.751114,163.133636 
	C248.261993,163.759369 247.458206,164.394180 246.303772,164.998199 
	C246.780914,164.359192 247.608688,163.750977 248.751114,163.133636 
z"/>
<path fill="#DD762B" opacity="1.000000" stroke="none" 
	d="
M276.686340,136.099014 
	C276.528809,136.929337 276.095642,137.911987 275.310059,138.936127 
	C275.442017,138.068848 275.926361,137.160095 276.686340,136.099014 
z"/>
<path fill="#DD762B" opacity="1.000000" stroke="none" 
	d="
M253.663727,159.995148 
	C253.216217,160.647507 252.455185,161.335052 251.336029,162.005127 
	C251.768677,161.335220 252.559448,160.682770 253.663727,159.995148 
z"/>
<path fill="#DD762B" opacity="1.000000" stroke="none" 
	d="
M198.284866,155.870972 
	C198.453094,155.041336 198.899277,154.067413 199.696899,153.060303 
	C199.553162,153.926971 199.057983,154.826828 198.284866,155.870972 
z"/>
<path fill="#DD762B" opacity="1.000000" stroke="none" 
	d="
M186.690155,150.103638 
	C186.560944,150.939468 186.152695,151.924026 185.401154,152.969162 
	C185.508926,152.103943 185.960007,151.178162 186.690155,150.103638 
z"/>
<path fill="#FDE7CC" opacity="1.000000" stroke="none" 
	d="
M202.193283,125.790482 
	C201.685440,125.157204 201.475922,124.372528 201.130386,123.295677 
	C201.493454,123.882027 201.992523,124.760559 202.193283,125.790482 
z"/>
<path fill="#DD762B" opacity="1.000000" stroke="none" 
	d="
M188.679199,147.087860 
	C188.498734,147.878220 188.032913,148.808609 187.260056,149.861023 
	C187.433289,149.064667 187.913559,148.146286 188.679199,147.087860 
z"/>
<path fill="#FDE7CC" opacity="1.000000" stroke="none" 
	d="
M223.021317,174.230667 
	C223.433990,174.678116 223.795975,175.477280 224.128204,176.615356 
	C223.722488,176.163635 223.346542,175.373016 223.021317,174.230667 
z"/>
<path fill="#FDE7CC" opacity="1.000000" stroke="none" 
	d="
M222.340759,185.804413 
	C221.991318,185.246582 221.892685,184.504272 221.837952,183.389374 
	C222.118439,183.884491 222.355011,184.752228 222.340759,185.804413 
z"/>
<path fill="#FDE7CC" opacity="1.000000" stroke="none" 
	d="
M220.950745,178.821136 
	C220.539200,178.362564 220.186264,177.547836 219.865082,176.389984 
	C220.267654,176.852890 220.638504,177.658936 220.950745,178.821136 
z"/>
<path fill="#DD762B" opacity="1.000000" stroke="none" 
	d="
M203.312012,148.956848 
	C203.291473,148.500565 203.540604,147.941422 204.120636,147.393524 
	C204.161591,147.887848 203.871628,148.370911 203.312012,148.956848 
z"/>
<path fill="#FDE7CC" opacity="1.000000" stroke="none" 
	d="
M226.207458,185.883957 
	C226.530075,186.156433 226.750992,186.757339 226.904846,187.681763 
	C226.593765,187.407654 226.349762,186.810028 226.207458,185.883957 
z"/>
<path fill="#DD762B" opacity="1.000000" stroke="none" 
	d="
M259.404846,155.691498 
	C259.338776,156.076996 258.993317,156.531708 258.326996,156.996918 
	C258.379242,156.591858 258.752380,156.176285 259.404846,155.691498 
z"/>
<path fill="#FDE7CC" opacity="1.000000" stroke="none" 
	d="
M233.291138,204.979660 
	C233.401535,204.591797 233.835281,204.205627 234.563919,203.762634 
	C234.444031,204.130997 234.029251,204.556183 233.291138,204.979660 
z"/>
<path fill="#FDE7CC" opacity="1.000000" stroke="none" 
	d="
M214.965271,157.372650 
	C215.330078,157.499374 215.697906,157.927551 216.083374,158.647934 
	C215.723419,158.518127 215.345856,158.096100 214.965271,157.372650 
z"/>
<path fill="#DD762B" opacity="1.000000" stroke="none" 
	d="
M213.638428,138.341492 
	C213.696442,137.952042 214.033295,137.491180 214.694641,137.019791 
	C214.651855,137.429550 214.284576,137.849823 213.638428,138.341492 
z"/>
<path fill="#FDE7CC" opacity="1.000000" stroke="none" 
	d="
M173.195770,182.275970 
	C173.615524,182.125931 174.227768,182.239807 175.046814,182.596924 
	C174.631851,182.740082 174.010056,182.639984 173.195770,182.275970 
z"/>
<path fill="#DD762B" opacity="1.000000" stroke="none" 
	d="
M250.709961,161.991989 
	C250.575180,162.339249 250.156174,162.701263 249.443741,163.076462 
	C249.575455,162.728683 250.000595,162.367722 250.709961,161.991989 
z"/>
<path fill="#DD762B" opacity="1.000000" stroke="none" 
	d="
M266.638184,166.360779 
	C266.705536,165.961563 267.012634,165.492264 267.600098,165.221375 
	C267.880402,165.419800 267.780060,165.872620 267.780060,165.872620 
	C267.479340,166.011963 267.178650,166.151321 266.638184,166.360779 
z"/>
<path fill="#FDE7CC" opacity="1.000000" stroke="none" 
	d="
M221.067917,169.141815 
	C221.427536,169.335541 221.746185,169.850098 222.043152,170.678894 
	C221.689957,170.482971 221.358459,169.972809 221.067917,169.141815 
z"/>
<path fill="#FDE7CC" opacity="1.000000" stroke="none" 
	d="
M221.802444,182.092926 
	C221.462845,181.835159 221.212585,181.243668 221.015106,180.324875 
	C221.342529,180.584793 221.617157,181.172012 221.802444,182.092926 
z"/>
<path fill="#FDE7CC" opacity="1.000000" stroke="none" 
	d="
M220.172821,166.959320 
	C220.418198,166.950287 220.652328,167.210129 220.868393,167.742279 
	C220.620743,167.752457 220.391144,167.490341 220.172821,166.959320 
z"/>
<path fill="#FDE7CC" opacity="1.000000" stroke="none" 
	d="
M193.965088,133.751465 
	C193.899185,133.499374 194.125549,133.217712 194.620285,132.861023 
	C194.678223,133.097977 194.467789,133.409927 193.965088,133.751465 
z"/>
<path fill="#DD762B" opacity="1.000000" stroke="none" 
	d="
M270.389709,163.127472 
	C270.307983,162.877716 270.495453,162.571335 270.961823,162.225128 
	C271.046783,162.480484 270.852875,162.775665 270.389709,163.127472 
z"/>
<path fill="#FDE7CC" opacity="1.000000" stroke="none" 
	d="
M219.187012,164.936707 
	C219.437897,164.924438 219.678329,165.188705 219.908112,165.730103 
	C219.657166,165.742569 219.416855,165.477921 219.187012,164.936707 
z"/>
<path fill="#DD762B" opacity="1.000000" stroke="none" 
	d="
M212.527237,139.255875 
	C212.442673,138.991455 212.610855,138.669662 213.073395,138.366791 
	C213.171814,138.656631 212.975891,138.927567 212.527237,139.255875 
z"/>
<path fill="#DD762B" opacity="1.000000" stroke="none" 
	d="
M204.687164,147.283081 
	C204.556259,147.038742 204.654785,146.693588 205.048126,146.325790 
	C205.200821,146.596191 205.058701,146.889236 204.687164,147.283081 
z"/>
<path fill="#E9690D" opacity="1.000000" stroke="none" 
	d="
M237.071991,228.101944 
	C237.082138,228.122055 237.087494,227.869980 237.087494,227.869980 
	C237.087494,227.869980 237.057190,227.918304 237.043335,227.988647 
	C237.029495,228.058975 237.061844,228.081833 237.071991,228.101944 
z"/>
<path fill="#FDE7CC" opacity="1.000000" stroke="none" 
	d="
M268.054565,165.817108 
	C267.780060,165.872620 267.880402,165.419800 267.919159,165.190948 
	C267.957916,164.962097 268.441345,164.877869 268.686523,164.870026 
	C268.730804,165.161972 268.529938,165.461792 268.054565,165.817108 
z"/>
<path fill="#FDE7CC" opacity="1.000000" stroke="none" 
	d="
M273.074677,161.193100 
	C273.010132,161.500519 272.846802,161.740768 272.377228,161.751617 
	C272.169739,161.589386 272.181885,161.109314 272.181885,161.109314 
	C272.181885,161.109314 272.076385,161.078186 272.333923,161.128082 
	C272.591492,161.177963 273.074677,161.193100 273.074677,161.193100 
z"/>
<path fill="#DD762B" opacity="1.000000" stroke="none" 
	d="
M279.319641,154.021927 
	C279.223785,153.799652 279.385895,153.495148 279.798950,153.099091 
	C279.892487,153.318268 279.735046,153.628983 279.319641,154.021927 
z"/>
<path fill="#DD762B" opacity="1.000000" stroke="none" 
	d="
M184.540085,153.709412 
	C184.692780,153.929962 184.588715,154.306030 184.223724,154.834930 
	C184.069626,154.613480 184.176468,154.239197 184.540085,153.709412 
z"/>
<path fill="#FDE7CC" opacity="1.000000" stroke="none" 
	d="
M198.932434,121.496178 
	C198.694687,121.770271 198.427063,121.670860 198.138947,121.185120 
	C198.366348,120.957344 198.627716,121.065300 198.932434,121.496178 
z"/>
<path fill="#DD762B" opacity="1.000000" stroke="none" 
	d="
M278.374634,155.086761 
	C278.270599,154.853943 278.430084,154.542374 278.846924,154.142548 
	C278.948914,154.372208 278.793518,154.690125 278.374634,155.086761 
z"/>
<path fill="#DD762B" opacity="1.000000" stroke="none" 
	d="
M277.424500,156.131592 
	C277.319214,155.894012 277.473389,155.571594 277.898743,155.177368 
	C278.007904,155.419281 277.845917,155.733002 277.424500,156.131592 
z"/>
<path fill="#DD762B" opacity="1.000000" stroke="none" 
	d="
M271.909607,161.189941 
	C272.181885,161.109314 272.169739,161.589386 272.168884,161.829575 
	C272.007324,162.117416 271.846619,162.165054 271.435608,162.235199 
	C271.335999,161.928665 271.486694,161.599609 271.909607,161.189941 
z"/>
<path fill="#DD762B" opacity="1.000000" stroke="none" 
	d="
M276.437073,157.259033 
	C276.326447,157.017151 276.485565,156.665710 276.934692,156.228821 
	C277.052124,156.478745 276.879486,156.814117 276.437073,157.259033 
z"/>
<path fill="#FDE7CC" opacity="1.000000" stroke="none" 
	d="
M230.078339,206.888428 
	C230.049362,206.658173 230.276993,206.417725 230.761047,206.164536 
	C230.789963,206.393936 230.562439,206.636078 230.078339,206.888428 
z"/>
<path fill="#FDE7CC" opacity="1.000000" stroke="none" 
	d="
M222.236389,171.850967 
	C222.489395,171.862381 222.705124,172.155548 222.891296,172.730194 
	C222.640869,172.718674 222.419983,172.425705 222.236389,171.850967 
z"/>
<path fill="#FDE7CC" opacity="1.000000" stroke="none" 
	d="
M216.100586,159.147614 
	C216.326614,159.110992 216.575256,159.314316 216.820099,159.768616 
	C216.486710,159.916992 216.255676,159.706329 216.100586,159.147614 
z"/>
<path fill="#DD762B" opacity="1.000000" stroke="none" 
	d="
M269.324585,164.088959 
	C269.247803,163.852066 269.439484,163.544907 269.907471,163.180862 
	C269.986847,163.422211 269.789978,163.720459 269.324585,164.088959 
z"/>
<path fill="#DD762B" opacity="1.000000" stroke="none" 
	d="
M273.495728,160.199799 
	C273.409393,159.941742 273.600555,159.601410 274.097717,159.218719 
	C274.193573,159.490082 273.983398,159.803802 273.495728,160.199799 
z"/>
<path fill="#FDE7CC" opacity="1.000000" stroke="none" 
	d="
M219.931229,175.860992 
	C219.577179,176.007751 219.361771,175.794388 219.299805,175.216827 
	C219.647522,175.086807 219.853058,175.302872 219.931229,175.860992 
z"/>
<path fill="#FDE7CC" opacity="1.000000" stroke="none" 
	d="
M217.136612,161.035553 
	C217.376251,161.009262 217.625229,161.245239 217.872681,161.747437 
	C217.629425,161.775024 217.387695,161.536423 217.136612,161.035553 
z"/>
<path fill="#DD762B" opacity="1.000000" stroke="none" 
	d="
M273.160767,160.958893 
	C273.074677,161.193100 272.591492,161.177963 272.349854,161.180725 
	C272.313599,160.878448 272.518951,160.573425 273.012146,160.248413 
	C273.299988,160.228409 273.246857,160.724670 273.160767,160.958893 
z"/>
<path fill="#FDE7CC" opacity="1.000000" stroke="none" 
	d="
M171.154709,181.376587 
	C171.341782,181.211746 171.696121,181.266022 172.211411,181.546326 
	C172.022232,181.713470 171.672104,181.654587 171.154709,181.376587 
z"/>
<path fill="#FEFCF5" opacity="1.000000" stroke="none" 
	d="
M700.012878,127.172943 
	C700.085388,125.389366 700.157715,124.084442 700.251953,122.383774 
	C706.334412,122.383774 712.302490,121.889778 718.145935,122.531090 
	C723.359741,123.103294 726.295898,127.726830 726.011841,133.043518 
	C725.744202,138.051987 722.423584,141.794693 717.149780,142.137695 
	C711.703796,142.491898 706.216736,142.216415 700.012695,142.216415 
	C700.012695,137.189041 700.012695,132.420319 700.012878,127.172943 
z"/>
<path fill="#F5F9FC" opacity="1.000000" stroke="none" 
	d="
M647.965088,176.070190 
	C646.435425,176.286545 645.274658,176.623489 644.141357,176.548264 
	C640.210571,176.287277 636.877808,175.026642 636.343018,170.470139 
	C635.905823,166.744934 638.826233,163.780258 643.487244,163.025681 
	C644.628418,162.840927 645.798950,162.784714 646.957275,162.770035 
	C649.753784,162.734558 652.551086,162.758545 655.268799,162.758545 
	C656.831970,170.412155 655.400146,173.054489 647.965088,176.070190 
z"/>
<path fill="#FEFAF1" opacity="1.000000" stroke="none" 
	d="
M767.904663,176.188843 
	C763.987793,175.103851 761.555298,172.557693 762.862061,169.188736 
	C763.820129,166.718765 766.661926,163.975708 769.166992,163.342026 
	C773.035522,162.363449 777.334045,163.084091 781.407166,163.084091 
	C783.228821,172.289993 778.261536,177.194580 767.904663,176.188843 
z"/>
<path fill="#FBFCFE" opacity="1.000000" stroke="none" 
	d="
M432.609619,227.034943 
	C445.631134,232.563507 446.965271,253.803680 438.745911,263.350311 
	C431.387085,271.897461 415.505920,271.536255 408.624847,262.670990 
	C398.015717,249.002594 405.385925,227.409485 421.513885,225.492828 
	C424.985504,225.080261 428.661835,226.390305 432.609619,227.034943 
z"/>
<path fill="#F5F9FC" opacity="1.000000" stroke="none" 
	d="
M520.586365,248.251602 
	C516.678650,248.306778 513.219421,248.306778 509.505859,248.306778 
	C509.505859,240.605194 509.505859,233.331238 509.505859,224.870193 
	C514.768799,225.378357 520.050903,225.378525 525.071960,226.523529 
	C529.647400,227.566940 532.140137,232.561249 531.720032,237.613159 
	C531.223694,243.581345 527.927551,246.846100 520.586365,248.251602 
z"/>
<path fill="#F1F6FB" opacity="1.000000" stroke="none" 
	d="
M624.812256,231.939957 
	C625.374451,230.349274 625.816345,229.107391 626.467834,227.276627 
	C630.034363,236.593781 633.406128,245.402115 636.919189,254.579620 
	C629.827026,254.579620 623.265137,254.579620 616.084473,254.579620 
	C619.007935,247.008881 621.849976,239.648819 624.812256,231.939957 
z"/>
<path fill="#EEEEED" opacity="1.000000" stroke="none" 
	d="
M628.778442,90.636208 
	C626.141907,92.278877 623.608582,93.538216 620.278809,95.193520 
	C620.278809,90.882042 620.278809,88.284256 620.278809,85.706863 
	C626.628052,84.593063 627.987732,85.325562 628.778442,90.636208 
z"/>
<path fill="#EEEEED" opacity="1.000000" stroke="none" 
	d="
M561.659668,94.600143 
	C560.601990,99.314659 557.345642,95.753258 554.600525,97.481575 
	C556.040894,93.193314 557.174377,89.818832 558.524963,85.798073 
	C559.655640,88.998154 560.577942,91.608505 561.659668,94.600143 
z"/>
</svg>